<svg width="230" height="229" viewBox="0 0 230 229" fill="none" xmlns="http://www.w3.org/2000/svg">
<path d="M0 114.463C0 108.189 1.89966 101.865 5.75108 96.5082L5.76984 96.4824C5.79665 96.4467 5.80143 96.4374 5.88712 96.3089C5.93118 96.2428 6.00873 96.1342 6.11228 96.011C6.14332 95.9679 6.17156 95.9318 6.19203 95.9054C6.20839 95.8843 6.22546 95.8633 6.23659 95.8491C6.24918 95.8331 6.25732 95.8213 6.26474 95.8116C6.29669 95.7701 6.27397 95.7933 6.24597 95.8491C6.28926 95.7627 6.34046 95.6803 6.39843 95.6029C6.62276 95.3038 6.9192 94.9068 7.27563 94.538C7.34522 94.4506 7.40589 94.3751 7.4492 94.3246C7.51558 94.2472 7.54701 94.2122 7.57351 94.1768L7.65794 94.0736C7.98634 93.7042 8.35482 93.2899 8.72982 92.915C14.6543 86.7816 17.4554 78.2005 16.2306 69.7465L16.2259 69.716C16.2041 69.5416 16.181 69.3579 16.1603 69.1812C16.1392 69.0023 16.1193 68.8303 16.0993 68.6699C16.0965 68.6478 16.0941 68.6241 16.0922 68.6019C16.071 68.3475 16.0498 68.0819 16.0289 67.8208C16.008 67.5589 15.9886 67.2993 15.9679 67.0515C15.9437 66.7605 15.9315 66.4616 15.9257 66.1743L15.9187 65.3675V65.1001C16.0513 51.8391 24.6699 40.0371 37.3164 35.9249C37.9958 35.6988 38.6687 35.522 39.2865 35.3572L39.31 35.3502C39.3938 35.3293 39.4795 35.3078 39.5633 35.2869C39.6467 35.266 39.7308 35.2444 39.8143 35.2236C39.9278 35.1917 40.0164 35.1728 40.0559 35.1649C40.1081 35.1545 40.0726 35.1602 40.0301 35.1743C40.0935 35.1532 40.1591 35.1358 40.2247 35.1227C40.4425 35.0792 40.6703 35.0376 40.8885 34.996C41.1095 34.954 41.3212 34.9118 41.5218 34.8717C41.5352 34.869 41.5504 34.8671 41.564 34.8647C49.9908 33.4008 57.2736 28.099 61.2706 20.5409L61.2776 20.5269L61.8218 19.5207C61.8377 19.4912 61.8556 19.4623 61.8734 19.4339C62.04 19.1673 62.266 18.7768 62.5137 18.43C62.7352 18.0819 62.9509 17.7761 63.1423 17.5083C63.2267 17.39 63.2937 17.287 63.4073 17.1166C63.4766 17.0126 63.5681 16.892 63.6677 16.7601C63.6814 16.7371 63.6924 16.7124 63.7075 16.6897C63.7702 16.5956 63.8389 16.5144 63.9092 16.4434C69.8439 8.53769 79.1531 4.09469 88.7196 4.09454C91.861 4.09454 95.0416 4.58068 98.1296 5.55108L98.1577 5.55812L98.1554 5.56281C98.4183 5.65044 98.6711 5.73516 98.9106 5.81846C99.1524 5.90257 99.3842 5.9826 99.6236 6.06239C99.743 6.10218 99.9231 6.16451 100.151 6.27114L101.599 6.89034L101.842 6.99823C101.897 7.02379 101.978 7.06215 102.011 7.07798C102.107 7.12371 102.15 7.14142 102.178 7.15069C102.246 7.17355 102.315 7.20098 102.38 7.23278C110.057 10.9917 119.081 10.9918 126.758 7.23278L126.869 7.18352C126.9 7.17111 126.944 7.15031 127.061 7.09205C127.154 7.04552 127.319 6.9615 127.497 6.89034L128.928 6.27817L129.052 6.22892C129.022 6.23885 129.002 6.2475 128.996 6.25003C129.023 6.23808 129.012 6.24423 129.08 6.2125C129.154 6.17841 129.288 6.12213 129.458 6.06943L130.926 5.56281L130.952 5.55342C143.519 1.49695 157.355 5.92787 165.238 16.5185C165.255 16.5374 165.275 16.5549 165.292 16.5748C165.525 16.8545 165.757 17.1828 165.963 17.5247C166.167 17.81 166.401 18.1358 166.636 18.5121H166.631C166.756 18.6941 166.868 18.8692 166.946 18.9976L167.166 19.3518L167.328 19.6333C167.372 19.7324 167.407 19.8364 167.431 19.9429C167.441 19.9865 167.454 20.0319 167.49 20.1047L167.684 20.4401L167.741 20.5409C171.738 28.099 179.02 33.4008 187.447 34.8647L187.461 34.867C187.937 34.9536 188.369 35.0393 188.786 35.1227C188.852 35.1358 188.918 35.1532 188.981 35.1743C188.939 35.1602 188.903 35.1545 188.955 35.1649C188.995 35.1728 189.082 35.1944 189.195 35.2259L189.197 35.2236C189.28 35.2444 189.364 35.266 189.448 35.2869C189.476 35.2938 189.547 35.3128 189.575 35.3197C189.64 35.336 189.573 35.3175 189.638 35.3338L189.701 35.3502L189.758 35.3643L191.643 35.9108L191.695 35.9249C204.337 40.0357 213.001 51.8358 213.09 65.1048L213.093 65.1165C213.093 65.6912 213.092 66.3785 213.046 67.0328L213.043 67.0515C213.023 67.2993 213.003 67.5589 212.982 67.8208C212.961 68.0819 212.94 68.3475 212.919 68.6019C212.917 68.6241 212.915 68.6478 212.912 68.6699C212.892 68.8303 212.872 69.0023 212.851 69.1812C212.83 69.3579 212.807 69.5416 212.785 69.716L212.783 69.7394C211.632 77.9456 214.197 86.2274 219.758 92.3521L220.305 92.9384L220.347 92.983C220.497 93.1513 220.649 93.3141 220.819 93.4943L221.353 94.0736L221.438 94.1768C221.464 94.2121 221.496 94.2471 221.562 94.3246C221.612 94.3825 221.684 94.473 221.766 94.5779L222.564 95.5419C222.599 95.5846 222.634 95.6295 222.664 95.6756C222.689 95.7122 222.725 95.7628 222.782 95.8421C222.82 95.8951 222.869 95.9677 222.918 96.0391L223.255 96.5012L223.265 96.5153C227.065 101.862 229.011 108.182 229.011 114.463C229.011 120.779 227.111 127.062 223.26 132.417L223.241 132.443C223.192 132.509 223.148 132.569 223.096 132.642C223.044 132.715 222.982 132.804 222.906 132.905C222.86 132.967 222.808 133.024 222.754 133.079C222.783 133.049 222.8 133.027 222.8 133.027C222.797 133.032 222.79 133.042 222.761 133.083C222.738 133.115 222.692 133.179 222.641 133.245C222.587 133.314 222.512 133.402 222.418 133.496C222.446 133.468 222.463 133.449 222.465 133.447C222.461 133.452 222.454 133.462 222.425 133.503C222.402 133.535 222.357 133.599 222.306 133.665C222.273 133.707 222.229 133.752 222.181 133.806C221.968 134.062 221.797 134.27 221.628 134.507C221.576 134.579 221.519 134.648 221.456 134.711C221.48 134.687 221.494 134.67 221.499 134.664C221.498 134.666 221.496 134.669 221.494 134.671C221.486 134.682 221.476 134.697 221.461 134.718C221.445 134.741 221.429 134.768 221.407 134.8C221.368 134.859 221.325 134.916 221.278 134.969C221.11 135.161 220.932 135.347 220.779 135.511C220.618 135.682 220.481 135.83 220.356 135.973C220.339 135.993 220.319 136.014 220.3 136.034C214.364 142.168 211.555 150.757 212.781 159.219L212.785 159.252C212.807 159.426 212.83 159.61 212.851 159.787L212.912 160.298L212.919 160.366C212.94 160.62 212.961 160.884 212.982 161.145C213.003 161.407 213.023 161.666 213.043 161.914C213.092 162.496 213.09 163.111 213.09 163.6V163.868C212.957 177.03 204.484 188.734 191.981 192.9L191.983 192.902C191.229 193.168 190.466 193.391 189.657 193.573C189.574 193.594 189.491 193.618 189.408 193.639C189.324 193.66 189.239 193.679 189.155 193.7L189.152 193.697C189.039 193.729 188.952 193.753 188.913 193.761C188.86 193.771 188.898 193.763 188.941 193.749C188.877 193.77 188.81 193.787 188.744 193.8C188.526 193.844 188.299 193.888 188.081 193.929C187.859 193.972 187.648 194.014 187.447 194.054C187.434 194.056 187.419 194.058 187.405 194.061C178.978 195.525 171.698 200.827 167.701 208.385L167.691 208.399L167.147 209.405C167.142 209.415 167.134 209.425 167.128 209.435C167.025 209.616 166.904 209.811 166.828 209.933C166.741 210.074 166.676 210.179 166.627 210.277C166.608 210.314 166.589 210.352 166.568 210.388L166.441 210.596C166.428 210.618 166.416 210.641 166.401 210.662C166.318 210.788 166.232 210.914 166.148 211.04C166.085 211.135 166.019 211.228 165.956 211.323C165.926 211.384 165.892 211.443 165.855 211.499C165.762 211.639 165.661 211.788 165.569 211.922C165.492 212.032 165.421 212.133 165.358 212.226C165.295 212.335 165.212 212.453 165.1 212.567C159.165 220.471 149.857 224.915 140.292 224.915C137.203 224.915 134.103 224.474 131.043 223.499L131.022 223.492C131 223.484 130.962 223.473 130.879 223.449C130.815 223.431 130.705 223.399 130.603 223.365C130.531 223.341 130.461 223.312 130.394 223.278C130.423 223.293 130.452 223.306 130.478 223.316L130.38 223.283C130.365 223.277 130.351 223.268 130.335 223.262C130.292 223.248 130.249 223.234 130.206 223.22C130.143 223.199 130.079 223.177 130.016 223.156C129.986 223.146 129.956 223.135 129.927 223.123C129.873 223.102 129.82 223.083 129.723 223.051C129.65 223.026 129.548 222.99 129.43 222.945C129.31 222.905 129.129 222.844 128.9 222.736C128.635 222.626 128.383 222.517 128.144 222.413C127.902 222.307 127.672 222.209 127.434 222.11C127.264 222.041 127.108 221.96 127.019 221.916C126.902 221.857 126.857 221.836 126.826 221.824C126.789 221.809 126.752 221.792 126.716 221.775C119.039 218.016 110.014 218.016 102.337 221.775C102.301 221.792 102.264 221.809 102.227 221.824C102.186 221.841 102.152 221.858 102.002 221.93C101.903 221.977 101.758 222.036 101.589 222.098L101.591 222.103L100.126 222.732C100.084 222.749 100.041 222.764 99.9989 222.779C99.9332 222.801 99.9033 222.812 99.8746 222.823C99.8512 222.832 99.8252 222.842 99.7925 222.858C99.7345 222.887 99.6753 222.914 99.6142 222.936L99.0279 223.145C99.0172 223.148 99.0058 223.153 98.995 223.156C98.9322 223.177 98.8679 223.199 98.8051 223.22C98.7551 223.236 98.7049 223.252 98.655 223.269L98.4978 223.332C98.4686 223.344 98.4385 223.355 98.4087 223.365C98.3061 223.399 98.1962 223.431 98.1319 223.449C98.0494 223.473 98.0116 223.484 97.9888 223.492L97.9677 223.499C94.908 224.474 91.8081 224.915 88.7196 224.915C79.1191 224.915 69.8277 220.44 63.8576 212.494C63.8397 212.474 63.8207 212.456 63.8037 212.435C63.5205 212.095 63.299 211.762 63.0954 211.406C63.091 211.398 63.0878 211.39 63.0836 211.382C63.0823 211.38 63.0803 211.377 63.0789 211.375C63.0687 211.358 63.0608 211.339 63.0508 211.321C62.9882 211.227 62.9257 211.133 62.8632 211.04C62.7794 210.914 62.6936 210.788 62.6098 210.662L62.5489 210.556C62.532 210.531 62.485 210.456 62.4292 210.355L62.4269 210.357C62.3626 210.245 62.2959 210.145 62.183 209.963C62.1024 209.833 62.0115 209.671 61.9156 209.492L61.5685 208.889C61.473 208.709 61.3876 208.539 61.3105 208.385L60.9281 207.683C56.8594 200.499 49.7699 195.479 41.6062 194.061L41.5921 194.058C41.1158 193.972 40.6842 193.884 40.2669 193.8C40.201 193.787 40.1338 193.77 40.0699 193.749C40.113 193.763 40.1508 193.771 40.0981 193.761C40.0588 193.753 39.9705 193.729 39.8565 193.697C39.7727 193.676 39.687 193.66 39.6032 193.639C39.5196 193.618 39.4358 193.596 39.3522 193.575C39.328 193.569 39.3034 193.561 39.2795 193.554C38.2316 193.24 37.7089 193.087 37.4454 193.012C37.3868 192.996 37.3446 192.983 37.314 192.975C37.2244 192.961 37.1352 192.938 37.049 192.909C24.5842 188.71 16.0539 177.002 15.921 163.868L15.9187 163.851C15.9187 163.277 15.9189 162.589 15.9656 161.935L15.9679 161.914C15.9886 161.666 16.0079 161.407 16.0289 161.145C16.0498 160.884 16.0711 160.62 16.0922 160.366L16.0993 160.298C16.1193 160.137 16.1392 159.966 16.1603 159.787C16.181 159.61 16.2042 159.426 16.2259 159.252L16.2283 159.226C17.4155 150.756 14.6453 142.205 8.70637 136.029C8.33752 135.659 8.01581 135.292 7.733 134.969C7.70616 134.938 7.68005 134.906 7.6556 134.873L7.42809 134.568C7.24128 134.344 7.0239 134.081 6.80185 133.775C6.76619 133.734 6.73175 133.699 6.70568 133.665C6.65464 133.599 6.60904 133.535 6.58607 133.503C6.55676 133.462 6.54996 133.452 6.54619 133.447L6.5931 133.496C6.5388 133.442 6.48672 133.384 6.44065 133.323C6.40413 133.274 6.36912 133.227 6.34448 133.194C6.31761 133.157 6.30081 133.133 6.28585 133.114C6.26917 133.092 6.26083 133.082 6.2577 133.079C6.20341 133.024 6.15132 132.967 6.10525 132.905C6.02966 132.804 5.96706 132.715 5.91526 132.642C5.86279 132.569 5.82194 132.509 5.77219 132.443C5.7639 132.432 5.7544 132.422 5.74639 132.41C1.9457 127.063 3.65951e-05 120.743 0 114.463ZM63.5082 211.774C63.5166 211.812 63.5265 211.856 63.541 211.903C63.5282 211.86 63.5174 211.817 63.5082 211.774ZM63.3229 211.692C63.3205 211.689 63.3187 211.685 63.3158 211.682C63.3062 211.672 63.2922 211.658 63.276 211.64L63.3229 211.692ZM63.4683 211.464C63.4684 211.473 63.4703 211.483 63.4706 211.492C63.4713 211.511 63.4715 211.53 63.473 211.551C63.4746 211.573 63.4793 211.598 63.4824 211.624L63.4683 211.45C63.4683 211.454 63.4682 211.46 63.4683 211.464ZM162.341 211.281C162.34 211.302 162.34 211.323 162.339 211.342V211.382C162.34 211.309 162.345 211.236 162.355 211.164C162.349 211.207 162.344 211.247 162.341 211.281ZM206.495 114.463C206.495 111.051 206.289 107.669 205.958 104.316C204.102 87.5695 197.803 72.1812 188.217 59.3865C171.416 36.9894 144.699 22.4619 114.527 22.4619C104.274 22.4619 94.3936 24.1507 85.2154 27.2372C81.5339 28.5617 77.9613 30.0007 74.567 31.6772L74.5553 31.6819C60.8057 38.3503 48.9894 48.3131 40.0957 60.5405L40.0934 60.5429C30.9564 73.0536 24.947 87.9949 23.1357 104.213C22.7647 107.593 22.5587 111.01 22.5587 114.463C22.5587 115.265 22.5686 116.058 22.5892 116.85L22.683 119.238V119.243C23.0121 126.071 24.1218 132.696 25.8916 139.034L25.8939 139.041C27.9513 146.529 30.9562 153.649 34.7434 160.234L34.7457 160.242C36.5081 163.334 38.4623 166.303 40.5507 169.121L41.4538 170.32C48.5343 179.581 57.3861 187.488 67.472 193.498C73.4848 197.081 79.9057 200.002 86.6931 202.141H86.7001C95.4625 204.938 104.806 206.421 114.527 206.421C127.167 206.421 139.187 203.87 150.136 199.261L150.14 199.258C159.111 195.514 167.343 190.369 174.589 184.111C189.659 171.101 200.442 153.318 204.6 133.069C205.835 127.059 206.495 120.843 206.495 114.463ZM37.375 192.982C37.4116 192.987 37.4528 192.991 37.497 192.994L37.5673 192.996L37.3586 192.977C37.3637 192.978 37.3695 192.981 37.375 192.982ZM65.0913 19.1923L65.0937 19.1946H65.1171C65.126 19.1945 65.1359 19.1926 65.1453 19.1923C65.1641 19.1917 65.185 19.1915 65.2063 19.19C65.2204 19.1889 65.2351 19.1845 65.2508 19.1829C65.1982 19.1881 65.1448 19.1923 65.0913 19.1923ZM65.3095 19.1782C65.3231 19.1764 65.3373 19.1759 65.3517 19.1735C65.3662 19.1711 65.3819 19.1651 65.3986 19.1618C65.369 19.1675 65.3395 19.1742 65.3095 19.1782ZM66.6511 17.8507C66.6636 17.7694 66.6722 17.6903 66.6722 17.6138C66.6722 17.6937 66.6627 17.7725 66.6511 17.8507ZM164.344 16.0212C164.33 16.0185 164.317 16.0139 164.305 16.0119C164.292 16.0097 164.279 16.0089 164.267 16.0072C164.293 16.0108 164.319 16.0164 164.344 16.0212ZM164.044 15.9907C164.089 15.9907 164.134 15.9942 164.178 15.9978C164.171 15.9972 164.165 15.9959 164.159 15.9954C164.138 15.9939 164.117 15.9914 164.098 15.9907H164.044ZM209.741 114.463C209.741 121.068 209.058 127.503 207.78 133.724C203.475 154.694 192.306 173.105 176.71 186.569C169.21 193.046 160.685 198.374 151.39 202.254C140.052 207.026 127.607 209.668 114.527 209.668C104.474 209.668 94.797 208.134 85.7127 205.235C78.6779 203.017 72.0295 199.989 65.8114 196.284C55.3697 190.062 46.2068 181.881 38.8761 172.293C36.3641 169.014 34.0192 165.521 31.9288 161.853C28.008 155.035 24.897 147.661 22.7651 139.902C20.9338 133.342 19.7829 126.479 19.4416 119.405L19.3454 116.935C19.3241 116.115 19.3126 115.294 19.3126 114.463C19.3126 110.88 19.5254 107.342 19.9083 103.854L19.9107 103.852C21.786 87.0609 28.0074 71.5872 37.4712 58.629C46.675 45.9757 58.905 35.665 73.1386 28.7618C76.6855 27.0105 80.388 25.5236 84.1483 24.1717L84.1811 24.16C93.6875 20.9631 103.917 19.2158 114.527 19.2158C145.281 19.2158 172.565 33.7972 189.992 56.3609L190.815 57.4398L191.737 58.6923C201.15 71.6942 207.327 87.1782 209.185 103.979L209.187 103.997C209.526 107.431 209.741 110.921 209.741 114.463ZM65.2508 208.76C65.2623 208.777 65.2809 208.814 65.3095 208.861L65.8138 209.616C65.8307 209.641 65.8429 209.669 65.8583 209.696C65.8679 209.711 65.8815 209.724 65.8912 209.74C65.9051 209.763 65.9151 209.79 65.9287 209.815C66.0303 209.992 66.1236 210.131 66.2242 210.261C66.3219 210.359 66.401 210.458 66.4611 210.554C71.8073 217.663 80.1252 221.669 88.7196 221.669C91.4958 221.669 94.2614 221.273 96.9826 220.405C97.0795 220.373 97.1807 220.345 97.2406 220.328C97.2952 220.312 97.3296 220.302 97.3532 220.295L97.501 220.236L97.5901 220.203C97.653 220.182 97.7173 220.161 97.7801 220.14C97.8427 220.119 97.9051 220.098 97.9677 220.077L98.4814 219.891C98.6519 219.814 98.7932 219.759 98.9012 219.723L100.313 219.12C100.354 219.102 100.397 219.087 100.44 219.073C100.468 219.064 100.51 219.046 100.606 219C100.639 218.985 100.72 218.944 100.775 218.918C100.819 218.897 100.873 218.875 100.93 218.85C109.503 214.66 119.574 214.665 128.144 218.862C128.279 218.92 128.397 218.978 128.471 219.014L128.66 219.106L128.682 219.113C128.946 219.223 129.2 219.332 129.439 219.436C129.681 219.542 129.91 219.642 130.148 219.741C130.182 219.756 130.217 219.772 130.251 219.788C130.284 219.805 130.309 219.817 130.333 219.826L130.457 219.868L130.546 219.901C130.601 219.923 130.653 219.941 130.75 219.973C130.823 219.998 130.924 220.033 131.041 220.077C131.104 220.098 131.168 220.119 131.231 220.14L131.421 220.203L131.628 220.288C131.602 220.275 131.576 220.264 131.552 220.255C131.575 220.263 131.607 220.274 131.642 220.288C131.648 220.29 131.656 220.294 131.663 220.297C131.686 220.304 131.72 220.313 131.771 220.328C131.83 220.345 131.93 220.374 132.026 220.405C134.747 221.273 137.515 221.669 140.292 221.669C148.925 221.669 157.317 217.629 162.616 210.472L162.681 210.39C162.754 210.283 162.83 210.174 162.9 210.073C162.978 209.96 163.049 209.856 163.113 209.761C163.139 209.712 163.166 209.663 163.197 209.616L163.699 208.861L163.784 208.718C163.884 208.527 163.985 208.357 164.07 208.22C164.172 208.056 164.232 207.957 164.29 207.857L164.83 206.867L165.259 206.084C169.658 198.316 177.218 192.812 185.972 191.028L186.851 190.862C187.056 190.821 187.269 190.781 187.473 190.742C187.694 190.7 187.908 190.658 188.109 190.618C188.186 190.598 188.245 190.584 188.275 190.578C188.267 190.58 188.259 190.584 188.249 190.587C188.289 190.574 188.329 190.562 188.369 190.552L188.871 190.425C188.885 190.422 188.899 190.419 188.913 190.416C189.597 190.264 190.247 190.073 190.904 189.841L190.933 189.832C202.126 186.114 209.727 175.629 209.846 163.835V163.6C209.846 163.084 209.844 162.607 209.809 162.184C209.788 161.93 209.766 161.666 209.746 161.405C209.725 161.152 209.707 160.901 209.687 160.661C209.667 160.499 209.645 160.33 209.626 160.166C209.605 159.987 209.585 159.813 209.565 159.653C208.206 150.198 211.346 140.618 217.969 133.775C218.12 133.605 218.275 133.438 218.412 133.292C218.551 133.144 218.671 133.012 218.783 132.886C218.833 132.813 218.906 132.72 218.987 132.621L219.355 132.136C219.473 131.988 219.588 131.853 219.69 131.73L219.749 131.662C219.755 131.655 219.766 131.641 219.784 131.615C219.807 131.583 219.853 131.519 219.904 131.453C219.957 131.385 220.031 131.296 220.124 131.202C220.096 131.231 220.078 131.25 220.077 131.252C220.081 131.247 220.09 131.239 220.12 131.198C220.142 131.166 220.188 131.102 220.239 131.036C220.26 131.009 220.287 130.981 220.314 130.949C220.362 130.885 220.404 130.828 220.455 130.757C220.507 130.684 220.567 130.597 220.643 130.496C224.069 125.72 225.765 120.116 225.765 114.463C225.765 108.852 224.027 103.198 220.629 98.4104L220.295 97.9483C220.282 97.9305 220.268 97.9128 220.256 97.8944C220.231 97.8579 220.197 97.8068 220.141 97.7279C220.105 97.6775 220.056 97.6106 220.009 97.5426L219.266 96.6466C219.25 96.627 219.234 96.6059 219.219 96.5856C219.192 96.5504 219.163 96.5151 219.097 96.4379C219.051 96.3839 218.982 96.3035 218.907 96.208L217.922 95.1408C211.324 88.251 208.244 78.726 209.567 69.2891C209.586 69.1354 209.606 68.9715 209.626 68.8012C209.645 68.6381 209.664 68.4686 209.685 68.3063C209.705 68.0662 209.725 67.8159 209.746 67.5628C209.766 67.3016 209.788 67.0362 209.809 66.7818C209.844 66.2722 209.846 65.7142 209.846 65.1282L209.816 64.0188C209.279 52.6172 201.668 42.591 190.714 39.0185L188.864 38.4861C188.797 38.4693 188.729 38.4536 188.662 38.4368C188.635 38.4299 188.563 38.4109 188.536 38.404C188.471 38.388 188.537 38.4062 188.472 38.3899C188.359 38.3615 188.525 38.402 188.411 38.3735C188.371 38.3635 188.331 38.3514 188.292 38.3383C188.334 38.3526 188.37 38.3582 188.317 38.3477C188.287 38.3416 188.229 38.3227 188.151 38.3032C187.734 38.2198 187.332 38.1418 186.891 38.0616C177.477 36.426 169.346 30.5085 164.879 22.0725C164.705 21.7905 164.503 21.4289 164.358 20.9749C164.284 20.8582 164.213 20.7533 164.161 20.6676C164.061 20.5009 163.999 20.4005 163.939 20.3158C163.92 20.2891 163.902 20.2614 163.885 20.2337C163.706 19.947 163.522 19.6912 163.31 19.394C163.278 19.3497 163.25 19.3029 163.223 19.2556C163.128 19.0888 163.001 18.9136 162.871 18.749C162.798 18.6761 162.726 18.5934 162.66 18.4957C162.653 18.4853 162.648 18.4733 162.642 18.4629C155.589 8.98159 143.198 5.01282 131.951 8.6424L131.949 8.64006L130.511 9.13729C130.468 9.15205 130.424 9.16374 130.38 9.17482C130.446 9.15813 130.483 9.13883 130.441 9.1584C130.429 9.16392 130.419 9.16986 130.398 9.17951C130.381 9.18785 130.354 9.19977 130.326 9.21235C130.295 9.22614 130.252 9.24 130.204 9.25926L128.74 9.89019C128.728 9.89539 128.715 9.89936 128.703 9.90426C128.672 9.91665 128.629 9.93783 128.513 9.99574C128.439 10.0325 128.317 10.087 128.182 10.1458L128.184 10.1482C119.607 14.3478 109.529 14.348 100.951 10.1482C100.817 10.0949 100.699 10.0495 100.616 10.0098C100.466 9.93853 100.434 9.92078 100.393 9.90426L100.372 9.89488C100.107 9.78462 99.8535 9.67524 99.6142 9.57121C99.372 9.46588 99.1415 9.36541 98.9036 9.2663C98.8697 9.25214 98.8356 9.23816 98.8027 9.22173C98.7696 9.20515 98.7443 9.1933 98.7206 9.1842C98.6919 9.17317 98.6622 9.16394 98.5963 9.14199C98.3335 9.05439 98.0829 8.96726 97.8434 8.88398C97.6097 8.80269 97.387 8.7219 97.1562 8.64475C94.3796 7.77231 91.5266 7.33832 88.7196 7.33832C80.0861 7.33847 71.6941 11.3814 66.3954 18.5379C66.3608 18.5846 66.3218 18.627 66.2828 18.6693C66.2392 18.7236 66.1862 18.7967 66.1069 18.9155C66.032 19.0279 65.9083 19.219 65.7833 19.394C65.571 19.6911 65.3901 19.9471 65.211 20.2337C65.1934 20.2617 65.1739 20.2889 65.1547 20.3158C64.9899 20.5466 64.8843 20.7376 64.6504 21.1132L64.1321 22.0725C59.6713 30.4971 51.5552 36.4073 42.1574 38.0522L42.1597 38.0545C41.9419 38.0981 41.7142 38.142 41.496 38.1835C41.2746 38.2257 41.0612 38.2653 40.8603 38.3055L40.858 38.3032C40.7813 38.3224 40.7241 38.3417 40.6938 38.3477C40.6414 38.3582 40.6768 38.3526 40.7196 38.3383C40.6804 38.3514 40.6401 38.3635 40.6 38.3735C40.5165 38.3944 40.4326 38.416 40.349 38.4368C40.2727 38.4559 40.1955 38.4717 40.1192 38.4908L40.1215 38.4931C39.4862 38.6625 38.9053 38.818 38.3319 39.0091L38.3202 39.0115C27.0042 42.6911 19.2835 53.2604 19.1648 65.1329V65.3675C19.1648 65.8836 19.1671 66.3587 19.2023 66.7818C19.2235 67.0362 19.2448 67.3016 19.2657 67.5628C19.2859 67.8159 19.3043 68.0662 19.3243 68.3063C19.3444 68.4687 19.3661 68.638 19.3853 68.8012C19.4063 68.9802 19.4262 69.1521 19.4463 69.3125C20.8064 78.7683 17.6657 88.3463 11.0424 95.1901L11.0237 95.2088C10.7354 95.4971 10.4386 95.8276 10.1066 96.201C10.0297 96.2989 9.96146 96.3828 9.91428 96.4379C9.84806 96.5151 9.81875 96.5504 9.79232 96.5856C9.74647 96.6467 9.69619 96.7051 9.64221 96.7592C9.45443 96.9469 9.27734 97.1728 9.03473 97.4957C8.95671 97.6233 8.88721 97.7269 8.83771 97.7912C8.81909 97.8154 8.80156 97.8379 8.78846 97.8545C8.77375 97.8732 8.76393 97.8837 8.75562 97.8944C8.74714 97.9053 8.74341 97.9091 8.74389 97.9085L8.55157 98.143C8.60812 98.0865 8.62873 98.0472 8.58675 98.1102L8.507 98.2298C8.47555 98.277 8.43309 98.3357 8.38504 98.401C4.9472 103.182 3.24612 108.84 3.24612 114.463C3.24616 120.066 4.97918 125.713 8.36862 130.496L8.55626 130.757C8.60573 130.826 8.64635 130.883 8.69229 130.944C8.84243 131.116 8.96587 131.279 9.023 131.357C9.05368 131.393 9.08431 131.424 9.10744 131.453C9.15834 131.519 9.20403 131.583 9.22706 131.615C9.2558 131.655 9.2631 131.666 9.26693 131.671L9.22237 131.62L9.39593 131.826C9.56499 132.063 9.73677 132.27 9.94946 132.525C9.96721 132.546 9.98443 132.569 10.0011 132.591L10.2098 132.87C10.3459 133.025 10.4737 133.172 10.6015 133.313L11.0237 133.757L11.0471 133.78C17.6761 140.673 20.77 150.22 19.4439 159.679C19.4248 159.832 19.4053 159.996 19.3853 160.166C19.366 160.33 19.3421 160.499 19.3219 160.661C19.302 160.901 19.2859 161.152 19.2657 161.405C19.2448 161.666 19.2235 161.93 19.2023 162.184C19.1666 162.697 19.1648 163.26 19.1648 163.851C19.2903 175.559 26.8864 186.013 37.9918 189.799C38.1244 189.828 38.2411 189.863 38.3296 189.888C38.6152 189.969 39.1444 190.126 40.1497 190.428C40.2302 190.448 40.3107 190.469 40.3913 190.489L40.6422 190.552L40.7618 190.587C40.7525 190.584 40.7439 190.58 40.736 190.578C40.7664 190.584 40.824 190.601 40.9002 190.62L40.9026 190.618C41.3229 190.702 41.729 190.783 42.1738 190.864C51.2949 192.452 59.2082 198.061 63.7521 206.084L64.1813 206.867L64.1977 206.9C64.2835 207.072 64.3592 207.225 64.4346 207.367L64.6668 207.77L64.7419 207.906C64.7912 208.005 64.8538 208.11 64.9412 208.251L65.2438 208.748L65.2508 208.76ZM165.625 17.5716C165.625 17.5004 165.619 17.4265 165.609 17.3511C165.619 17.4239 165.625 17.4975 165.625 17.5716Z" fill="black"/>
<path d="M157.355 110.1C157.355 110.097 157.353 110.122 157.353 110.151C157.353 109.255 158.08 108.528 158.976 108.528C159.872 108.528 160.599 109.255 160.599 110.151C160.599 110.268 160.589 110.37 160.582 110.433C160.576 110.491 160.567 110.552 160.564 110.581C160.562 110.594 160.562 110.607 160.561 110.616C160.557 110.645 160.555 110.659 160.554 110.663L160.556 110.611L160.524 110.939C160.372 111.679 159.718 112.234 158.933 112.234C158.149 112.234 157.495 111.679 157.343 110.939L157.31 110.611L157.346 110.149C157.353 110.098 157.356 110.085 157.357 110.074C157.358 110.068 157.356 110.078 157.355 110.1Z" fill="black"/>
<path d="M99.4494 7.79335C99.7824 6.96147 100.726 6.55754 101.558 6.89035C101.651 6.92775 101.736 6.96485 101.802 6.9959C101.857 7.02168 101.94 7.06238 101.973 7.07799C102.069 7.12375 102.112 7.14151 102.14 7.1507C102.989 7.43458 103.448 8.35311 103.165 9.20298C102.881 10.0529 101.962 10.5113 101.112 10.2279C100.889 10.1535 100.701 10.0661 100.578 10.0075C100.427 9.93562 100.394 9.91855 100.352 9.90193C99.5205 9.56892 99.1166 8.62538 99.4494 7.79335Z" fill="black"/>
<path d="M97.5733 7.08761C97.861 6.23889 98.7815 5.78436 99.6302 6.07203C99.767 6.11839 99.986 6.19126 100.264 6.33237C101.062 6.73863 101.38 7.71485 100.974 8.51366C100.568 9.31252 99.5918 9.63065 98.7929 9.22433C98.7607 9.20798 98.736 9.1981 98.7132 9.18915C98.6848 9.17806 98.6548 9.16696 98.5888 9.14459C97.7401 8.8568 97.2856 7.93635 97.5733 7.08761Z" fill="black"/>
<path d="M63.888 16.6121C64.4616 15.9237 65.4863 15.83 66.1748 16.4034C66.8632 16.977 66.9569 18.0017 66.3835 18.6902C66.3369 18.7462 66.2817 18.8231 66.1936 18.9552C66.1187 19.0675 65.9947 19.2566 65.8699 19.4314C65.6576 19.7285 65.4767 19.9844 65.2976 20.271C65.28 20.2992 65.2606 20.3261 65.2413 20.3531C65.0218 20.6604 64.8879 20.8538 64.7863 21.0568C64.3856 21.8581 63.4112 22.184 62.6097 21.7839C61.8083 21.3832 61.4824 20.4087 61.8826 19.6073C62.0978 19.1768 62.3583 18.8086 62.5534 18.5354C62.79 18.158 63.0249 17.8312 63.2289 17.5456C63.3133 17.4275 63.3781 17.3242 63.4916 17.1539C63.5919 17.0034 63.7253 16.8073 63.888 16.6121Z" fill="black"/>
<path d="M41.563 34.909C42.4416 34.7333 43.2961 35.3018 43.4722 36.1802C43.648 37.0591 43.0775 37.9137 42.1986 38.0894C41.9808 38.133 41.7531 38.1769 41.5349 38.2184C41.3139 38.2605 41.1021 38.3026 40.9016 38.3428C40.0229 38.5185 39.1684 37.9477 38.9924 37.0692C38.8167 36.1906 39.3852 35.3361 40.2636 35.16C40.4814 35.1164 40.7092 35.0725 40.9274 35.031C41.1487 34.9888 41.3622 34.9492 41.563 34.909Z" fill="black"/>
<path d="M39.8482 35.2205C40.7162 35.0002 41.5995 35.5255 41.8207 36.3933C42.0416 37.2618 41.5165 38.1472 40.648 38.3681L40.146 38.4948C39.2774 38.7157 38.392 38.1907 38.1712 37.3221C37.9506 36.4539 38.476 35.5708 39.3439 35.3495C39.4277 35.3282 39.5134 35.3075 39.5972 35.2862C39.6808 35.2649 39.7646 35.2418 39.8482 35.2205Z" fill="black"/>
<path d="M17.4913 65.2978C18.3839 65.2226 19.1676 65.885 19.2433 66.7777C19.2649 67.0318 19.2878 67.2957 19.309 67.5564C19.3303 67.8185 19.3513 68.0779 19.3723 68.3257C19.448 69.2187 18.7853 70.0044 17.8923 70.0802C16.9993 70.1559 16.2136 69.4932 16.1379 68.6002C16.1164 68.3462 16.0958 68.0822 16.0746 67.8215C16.0532 67.5591 16.0323 67.298 16.0113 67.0498C15.9361 66.1572 16.5985 65.3734 17.4913 65.2978Z" fill="black"/>
<path d="M17.5478 66.8577C18.4367 66.745 19.2478 67.3737 19.3608 68.2626C19.383 68.437 19.4054 68.6209 19.4265 68.7974C19.4479 68.9765 19.4694 69.1483 19.4898 69.3087C19.6029 70.1977 18.9737 71.0108 18.0849 71.1241C17.1959 71.2371 16.3828 70.608 16.2695 69.7192C16.2473 69.5446 16.225 69.3588 16.2038 69.1821C16.1824 69.0032 16.1632 68.831 16.1428 68.6708C16.0301 67.7819 16.6588 66.9707 17.5478 66.8577Z" fill="black"/>
<path d="M8.72738 92.9184C9.36113 92.2846 10.3898 92.2846 11.0236 92.9184C11.6564 93.5519 11.6564 94.5787 11.0236 95.2122C10.7284 95.5074 10.4249 95.848 10.0831 96.2325C10.0151 96.3177 9.95669 96.3917 9.91419 96.4412C9.84802 96.5184 9.81864 96.5538 9.79222 96.589C9.25447 97.306 8.23648 97.4504 7.51947 96.9127C6.80295 96.3752 6.65664 95.3592 7.19345 94.6423C7.29261 94.5101 7.3899 94.3971 7.4491 94.328C7.51535 94.2507 7.5446 94.2155 7.57107 94.1802L7.65785 94.077C7.98607 93.7078 8.35259 93.2932 8.72738 92.9184Z" fill="black"/>
<path d="M6.24605 95.8543C6.64671 95.053 7.62119 94.7272 8.42264 95.1272C9.22397 95.5279 9.54985 96.5024 9.14974 97.3038C9.03786 97.5276 8.91047 97.6995 8.83779 97.794C8.81917 97.8182 8.80166 97.8407 8.78853 97.8573C8.77382 97.8761 8.76401 97.8865 8.7557 97.8972L8.54695 98.1529C8.01084 98.6842 7.15655 98.7826 6.50405 98.3476C5.75907 97.8504 5.55726 96.8437 6.05372 96.0983C6.10693 96.0184 6.15946 95.9504 6.1921 95.9083C6.20851 95.8871 6.22559 95.8661 6.23667 95.852C6.24936 95.8358 6.25736 95.8241 6.26481 95.8144C6.29674 95.7729 6.27412 95.7982 6.24605 95.8543Z" fill="black"/>
<path d="M7.8836 132.728C8.55805 132.138 9.5849 132.206 10.1751 132.881C10.4724 133.22 10.7309 133.516 11.0218 133.807C11.6556 134.441 11.6556 135.469 11.0218 136.103C10.3882 136.736 9.36165 136.736 8.72796 136.103C8.34895 135.724 8.02007 135.35 7.73114 135.02C7.141 134.345 7.20925 133.318 7.8836 132.728Z" fill="black"/>
<path d="M18.085 157.847C18.9735 157.96 19.6025 158.771 19.4899 159.66C19.4695 159.82 19.448 159.992 19.4266 160.171C19.4054 160.348 19.3831 160.533 19.3609 160.708C19.2476 161.597 18.4365 162.226 17.5478 162.113C16.6587 162 16.0299 161.187 16.1429 160.298C16.1633 160.137 16.1825 159.965 16.2039 159.786C16.225 159.61 16.2474 159.426 16.2696 159.252C16.3826 158.362 17.1959 157.734 18.085 157.847Z" fill="black"/>
<path d="M17.8854 158.93C18.778 159.006 19.4405 159.789 19.3654 160.682C19.3443 160.93 19.3234 161.191 19.302 161.454C19.2808 161.714 19.2579 161.978 19.2364 162.232C19.1607 163.125 18.3769 163.788 17.4843 163.712C16.5912 163.637 15.9286 162.851 16.0043 161.958C16.0253 161.71 16.0463 161.451 16.0676 161.189C16.0889 160.928 16.1094 160.664 16.131 160.41C16.2067 159.517 16.9923 158.854 17.8854 158.93Z" fill="black"/>
<path d="M40.1461 190.468C40.2296 190.489 40.3136 190.513 40.3971 190.534C40.4806 190.555 40.5646 190.576 40.6481 190.597C41.5164 190.818 42.0416 191.701 41.8208 192.57C41.5999 193.438 40.7167 193.963 39.8483 193.742C39.7648 193.721 39.6808 193.7 39.5973 193.679C39.5135 193.658 39.4278 193.637 39.344 193.616C38.4758 193.395 37.9504 192.509 38.1712 191.641C38.3925 190.773 39.2778 190.247 40.1461 190.468Z" fill="black"/>
<path d="M40.9016 190.704C41.3212 190.788 41.7265 190.867 42.1705 190.948C43.0523 191.108 43.6372 191.954 43.4769 192.836C43.3165 193.718 42.4727 194.303 41.5912 194.143C41.1144 194.056 40.6812 193.968 40.2636 193.885C39.3853 193.708 38.8167 192.854 38.9924 191.975C39.1686 191.097 40.023 190.528 40.9016 190.704Z" fill="black"/>
<path d="M62.605 207.225C63.4064 206.825 64.3809 207.151 64.7816 207.952C64.9233 208.236 65.048 208.451 65.1944 208.656C65.7152 209.385 65.546 210.398 64.8167 210.919C64.0875 211.44 63.0742 211.271 62.5534 210.542C62.2811 210.16 62.071 209.788 61.8779 209.402C61.4778 208.6 61.8036 207.626 62.605 207.225Z" fill="black"/>
<path d="M63.0608 208.407C63.8065 207.91 64.8152 208.112 65.3124 208.857L65.8143 209.612C66.3111 210.358 66.1096 211.365 65.364 211.862C64.6183 212.359 63.6119 212.157 63.1147 211.411C63.031 211.286 62.9451 211.162 62.8614 211.036C62.7776 210.911 62.6942 210.784 62.6104 210.659C62.1133 209.913 62.315 208.904 63.0608 208.407Z" fill="black"/>
<path d="M63.7427 209.189C64.5208 208.745 65.5123 209.016 65.9568 209.794C66.0881 210.023 66.2036 210.192 66.3391 210.354C66.9129 211.043 66.8189 212.067 66.1304 212.641C65.4419 213.215 64.4196 213.121 63.8459 212.432C63.5628 212.093 63.3412 211.759 63.1376 211.403C62.6935 210.625 62.9648 209.633 63.7427 209.189Z" fill="black"/>
<path d="M98.0424 220.087C98.891 219.8 99.8117 220.254 100.099 221.103C100.387 221.951 99.9322 222.872 99.0838 223.16C99.0212 223.181 98.9588 223.204 98.8962 223.226C98.8333 223.247 98.769 223.268 98.7062 223.289C97.8578 223.576 96.9373 223.121 96.6492 222.273C96.3614 221.425 96.816 220.502 97.6648 220.214C97.7273 220.193 97.7899 220.172 97.8524 220.151C97.9153 220.129 97.9796 220.109 98.0424 220.087Z" fill="black"/>
<path d="M99.0047 219.702C99.8535 219.414 100.776 219.869 101.064 220.717C101.351 221.566 100.897 222.486 100.048 222.774C99.9822 222.797 99.9526 222.808 99.9242 222.819C99.9013 222.828 99.8766 222.838 99.8444 222.854C99.0455 223.26 98.0671 222.942 97.6608 222.143C97.2553 221.345 97.5734 220.368 98.3715 219.962C98.6485 219.821 98.868 219.748 99.0047 219.702Z" fill="black"/>
<path d="M101.023 218.807C101.855 218.474 102.799 218.878 103.132 219.71C103.465 220.542 103.06 221.485 102.229 221.818C102.187 221.835 102.154 221.852 102.004 221.924C101.881 221.982 101.692 222.07 101.469 222.144C100.619 222.428 99.7003 221.969 99.4166 221.119C99.1332 220.269 99.5917 219.351 100.442 219.067C100.469 219.058 100.512 219.04 100.608 218.994C100.641 218.979 100.724 218.938 100.779 218.912C100.846 218.881 100.93 218.844 101.023 218.807Z" fill="black"/>
<path d="M125.925 219.71C126.258 218.878 127.202 218.474 128.034 218.807C128.212 218.878 128.377 218.962 128.47 219.008C128.586 219.067 128.631 219.087 128.662 219.1C129.494 219.433 129.898 220.376 129.565 221.208C129.232 222.04 128.289 222.444 127.457 222.111C127.279 222.04 127.113 221.956 127.02 221.91C126.904 221.851 126.859 221.831 126.828 221.818C125.996 221.485 125.592 220.542 125.925 219.71Z" fill="black"/>
<path d="M128.08 220.501C128.486 219.703 129.464 219.385 130.263 219.791C130.296 219.807 130.32 219.819 130.343 219.828C130.371 219.839 130.401 219.848 130.467 219.871C131.316 220.158 131.771 221.081 131.483 221.93C131.195 222.779 130.272 223.233 129.423 222.945C129.287 222.899 129.067 222.826 128.79 222.685C127.992 222.279 127.673 221.3 128.08 220.501Z" fill="black"/>
<path d="M128.995 221.102C129.283 220.253 130.204 219.799 131.052 220.086C131.115 220.108 131.18 220.128 131.242 220.15C131.305 220.171 131.368 220.192 131.43 220.213C132.279 220.501 132.733 221.424 132.446 222.272C132.158 223.12 131.237 223.575 130.389 223.288C130.326 223.267 130.262 223.246 130.199 223.225C130.136 223.203 130.074 223.18 130.011 223.159C129.162 222.871 128.708 221.951 128.995 221.102Z" fill="black"/>
<path d="M163.158 209.698C163.655 208.952 164.663 208.751 165.409 209.248C166.155 209.745 166.357 210.754 165.86 211.499C165.766 211.639 165.661 211.788 165.569 211.922C165.473 212.06 165.39 212.183 165.315 212.294C164.818 213.04 163.809 213.242 163.064 212.745C162.319 212.248 162.117 211.241 162.613 210.495C162.706 210.356 162.807 210.207 162.9 210.073C162.996 209.934 163.083 209.81 163.158 209.698Z" fill="black"/>
<path d="M163.699 208.857C164.197 208.112 165.203 207.91 165.949 208.406C166.694 208.904 166.896 209.912 166.399 210.658C166.315 210.784 166.232 210.91 166.148 211.036C166.065 211.161 165.981 211.286 165.897 211.411C165.4 212.157 164.391 212.358 163.645 211.861C162.9 211.364 162.699 210.358 163.195 209.612C163.279 209.487 163.362 209.36 163.446 209.234C163.53 209.109 163.616 208.982 163.699 208.857Z" fill="black"/>
<path d="M164.309 207.873C164.753 207.095 165.745 206.824 166.523 207.268C167.301 207.712 167.572 208.704 167.128 209.482C167.023 209.666 166.768 210.16 166.495 210.542C165.974 211.271 164.961 211.44 164.231 210.919C163.502 210.399 163.333 209.385 163.854 208.656C164 208.452 164.079 208.274 164.309 207.873Z" fill="black"/>
<path d="M188.148 190.668C189.026 190.492 189.881 191.061 190.057 191.939C190.233 192.818 189.662 193.672 188.783 193.848C188.565 193.892 188.338 193.936 188.119 193.977C187.898 194.019 187.687 194.061 187.486 194.102C186.607 194.277 185.753 193.707 185.577 192.828C185.401 191.949 185.97 191.095 186.848 190.919C187.066 190.875 187.294 190.831 187.512 190.79C187.733 190.748 187.947 190.708 188.148 190.668Z" fill="black"/>
<path d="M188.907 190.51C189.775 190.29 190.658 190.815 190.88 191.683C191.101 192.552 190.576 193.437 189.707 193.658L189.205 193.785C188.336 194.005 187.451 193.48 187.23 192.612C187.01 191.744 187.535 190.861 188.403 190.639C188.487 190.618 188.572 190.597 188.656 190.576C188.74 190.555 188.824 190.532 188.907 190.51Z" fill="black"/>
<path d="M211.163 158.885C212.056 158.81 212.84 159.473 212.915 160.365C212.937 160.619 212.961 160.884 212.982 161.145C213.003 161.407 213.023 161.666 213.043 161.914C213.119 162.807 212.457 163.592 211.564 163.668C210.671 163.743 209.886 163.081 209.81 162.188C209.788 161.934 209.768 161.67 209.747 161.409C209.725 161.147 209.704 160.886 209.683 160.637C209.608 159.745 210.271 158.961 211.163 158.885Z" fill="black"/>
<path d="M210.971 157.847C211.86 157.734 212.672 158.363 212.785 159.252C212.807 159.426 212.83 159.61 212.851 159.787C212.872 159.966 212.892 160.137 212.912 160.298C213.025 161.187 212.397 162 211.508 162.113C210.619 162.226 209.806 161.597 209.693 160.708C209.671 160.533 209.648 160.348 209.627 160.171C209.606 159.992 209.587 159.82 209.566 159.66C209.454 158.771 210.082 157.96 210.971 157.847Z" fill="black"/>
<path d="M218.879 132.88C219.469 132.206 220.496 132.138 221.17 132.728C221.845 133.318 221.913 134.345 221.323 135.02C221.155 135.212 220.977 135.4 220.823 135.564C220.663 135.734 220.526 135.881 220.401 136.023C219.811 136.698 218.784 136.766 218.11 136.176C217.436 135.586 217.367 134.561 217.957 133.887C218.125 133.695 218.303 133.506 218.457 133.343C218.617 133.171 218.754 133.023 218.879 132.88Z" fill="black"/>
<path d="M220.46 95.2663C221.113 94.8312 221.967 94.9316 222.503 95.4634L222.712 95.7167L222.794 95.8222C222.867 95.9168 222.994 96.0868 223.106 96.3101C223.507 97.1117 223.18 98.0858 222.379 98.4867C221.577 98.8872 220.603 98.5634 220.202 97.7619C220.23 97.8181 220.253 97.8411 220.221 97.7994C220.214 97.79 220.205 97.7797 220.193 97.7643C220.182 97.7501 220.165 97.727 220.148 97.7056C220.116 97.6635 220.063 97.5975 220.01 97.518C219.513 96.7722 219.714 95.7635 220.46 95.2663Z" fill="black"/>
<path d="M218.1 92.852C218.769 92.2567 219.796 92.3164 220.391 92.9857C220.541 93.1542 220.693 93.3166 220.863 93.497L221.398 94.0763L221.482 94.1796C221.508 94.2148 221.538 94.2504 221.604 94.3273C221.663 94.3964 221.76 94.5094 221.86 94.6416C222.397 95.3582 222.252 96.3742 221.536 96.912C220.819 97.4497 219.801 97.3052 219.263 96.5883C219.237 96.5531 219.207 96.5177 219.141 96.4406C219.099 96.3911 219.04 96.3168 218.972 96.2318C218.823 96.0633 218.668 95.901 218.499 95.7205C218.334 95.5453 218.151 95.3514 217.966 95.1435C217.371 94.4739 217.43 93.4475 218.1 92.852Z" fill="black"/>
<path d="M211.506 66.8988C212.395 67.0122 213.024 67.8232 212.911 68.7119C212.891 68.8721 212.869 69.0443 212.848 69.2232C212.827 69.4 212.804 69.5857 212.782 69.7603C212.669 70.6488 211.858 71.2779 210.969 71.1652C210.08 71.0522 209.451 70.2389 209.564 69.3498C209.584 69.1895 209.604 69.0176 209.625 68.8385C209.646 68.662 209.669 68.4781 209.691 68.3038C209.804 67.4147 210.617 66.7858 211.506 66.8988Z" fill="black"/>
<path d="M211.562 65.2978C212.455 65.3736 213.118 66.159 213.043 67.0515C213.022 67.2997 213 67.5592 212.979 67.8216C212.958 68.0823 212.935 68.3462 212.913 68.6002C212.837 69.493 212.054 70.1554 211.161 70.0802C210.268 70.0045 209.605 69.2189 209.681 68.3258C209.702 68.078 209.723 67.8185 209.744 67.5565C209.766 67.2958 209.786 67.0318 209.808 66.7778C209.883 65.8848 210.669 65.2221 211.562 65.2978Z" fill="black"/>
<path d="M189.205 35.2676L189.212 35.27L189.215 35.2723H189.222L189.224 35.2747H189.231L189.233 35.277H189.24L189.243 35.2793H189.25L189.252 35.2817H189.259L189.268 35.284L189.271 35.2864H189.275L189.29 35.2911H189.294L189.299 35.2934C189.308 35.2958 189.297 35.2934 189.306 35.2958H189.315L189.334 35.3005L189.336 35.3028C189.339 35.3036 189.343 35.3044 189.346 35.3051C189.348 35.3057 189.35 35.3068 189.353 35.3075H189.362C189.444 35.3282 189.28 35.2867 189.362 35.3075L189.369 35.3098L189.374 35.3122C189.345 35.3048 189.36 35.3086 189.374 35.3122L189.381 35.3145H189.388C189.31 35.2946 189.472 35.337 189.393 35.3169L189.409 35.3216H189.416L189.419 35.3239C189.437 35.3287 189.46 35.3333 189.423 35.3239L189.433 35.3263L189.435 35.3286C189.439 35.3295 189.436 35.3277 189.44 35.3286L189.456 35.3333C189.471 35.337 189.49 35.3426 189.463 35.3356H189.47C189.483 35.3389 189.498 35.3444 189.473 35.338H189.48C189.482 35.3385 189.484 35.3396 189.487 35.3403C189.456 35.3326 189.525 35.3512 189.491 35.3427H189.498L189.503 35.345H189.508L189.51 35.3474H189.517L189.526 35.3497L189.529 35.3521C189.506 35.3462 189.52 35.3487 189.534 35.3521L189.543 35.3544C189.504 35.3446 189.589 35.3668 189.55 35.3567C189.555 35.358 189.549 35.3553 189.555 35.3567C189.524 35.349 189.541 35.3551 189.557 35.3591H189.564C189.547 35.3547 189.558 35.3592 189.566 35.3614H189.573C189.545 35.3542 189.564 35.3597 189.58 35.3638C189.601 35.3691 189.623 35.3749 189.644 35.3802L189.648 35.3825H189.655C189.639 35.3783 189.677 35.3891 189.66 35.3849C189.653 35.3832 189.652 35.3839 189.674 35.3896H189.684C189.686 35.3901 189.688 35.3913 189.691 35.3919L189.7 35.3943C189.711 35.3971 189.694 35.3933 189.707 35.3966C190.575 35.6177 191.101 36.5007 190.88 37.3692C190.659 38.2376 189.776 38.7625 188.907 38.5419C188.923 38.5458 188.884 38.536 188.898 38.5395L188.891 38.5372H188.884L188.881 38.5349H188.874L188.867 38.5325C188.853 38.5287 188.834 38.5234 188.86 38.5302L188.851 38.5278C188.887 38.537 188.808 38.5158 188.846 38.5255C188.788 38.5108 188.838 38.5238 188.781 38.5091H188.774C188.767 38.5074 188.755 38.5037 188.767 38.5067C188.776 38.5092 188.782 38.5096 188.762 38.5044H188.755L188.752 38.502H188.745C188.687 38.4871 188.712 38.4925 188.741 38.4997C188.733 38.4976 188.72 38.4937 188.734 38.4973C188.731 38.4967 188.729 38.4955 188.727 38.495H188.717L188.71 38.4926L188.706 38.4903C188.681 38.484 188.652 38.476 188.699 38.4879H188.689C188.686 38.4872 188.683 38.484 188.68 38.4833H188.67C188.647 38.4773 188.679 38.4843 188.656 38.4786L188.652 38.4762H188.645L188.642 38.4739H188.635C188.625 38.4712 188.612 38.4661 188.633 38.4715C188.676 38.4825 188.58 38.4582 188.623 38.4692C188.575 38.4569 188.594 38.4635 188.616 38.4692L188.612 38.4668C188.594 38.4624 188.61 38.4664 188.593 38.4621H188.588L188.579 38.4598C188.577 38.4592 188.574 38.4581 188.572 38.4575C188.538 38.4488 188.553 38.4509 188.57 38.4551H188.56C188.53 38.4473 188.543 38.449 188.558 38.4528H188.551L188.546 38.4504C188.604 38.4652 188.479 38.4335 188.537 38.4481C188.575 38.4578 188.555 38.4528 188.537 38.4481L188.532 38.4457H188.525L188.523 38.4434H188.516L188.513 38.441H188.506L188.501 38.4387H188.497C188.473 38.4327 188.449 38.4247 188.494 38.4363H188.487L188.478 38.434L188.476 38.4317H188.469C188.567 38.4566 188.37 38.4048 188.466 38.4293H188.459L188.457 38.427H188.452L188.45 38.4246H188.441L188.403 38.4152C187.535 38.194 187.009 37.3087 187.23 36.4403C187.451 35.5722 188.337 35.0468 189.205 35.2676Z" fill="black"/>
<path d="M187.461 34.867C187.938 34.9537 188.368 35.0418 188.785 35.1252C189.664 35.301 190.234 36.1556 190.058 37.0344C189.882 37.913 189.028 38.4836 188.149 38.308C187.729 38.224 187.323 38.1426 186.878 38.0617C185.996 37.9012 185.411 37.0553 185.571 36.1736C185.732 35.2921 186.58 34.7067 187.461 34.867Z" fill="black"/>
<path d="M162.923 16.3623C163.612 15.789 164.637 15.8827 165.21 16.571C165.439 16.8461 165.666 17.169 165.869 17.5045L166.2 17.9713C166.315 18.1382 166.434 18.3168 166.554 18.5084H166.549C166.674 18.6905 166.784 18.8678 166.861 18.9963C166.961 19.1631 167.024 19.2633 167.084 19.3481C167.605 20.0774 167.436 21.0906 166.707 21.6114C165.977 22.1323 164.964 21.9631 164.443 21.2338C164.295 21.0261 164.168 20.8132 164.08 20.6662C163.979 20.4991 163.917 20.3969 163.857 20.3121C163.838 20.2851 163.818 20.2581 163.801 20.23C163.621 19.9433 163.441 19.6875 163.228 19.3903C163.197 19.346 163.166 19.2992 163.139 19.2519C163.025 19.0529 162.872 18.8379 162.715 18.6491C162.141 17.9606 162.235 16.9359 162.923 16.3623Z" fill="black"/>
<path d="M129.209 6.16204C130.007 5.75619 130.984 6.07465 131.39 6.87272C131.797 7.67158 131.478 8.65003 130.68 9.05634C130.402 9.19735 130.183 9.27034 130.046 9.31669C129.198 9.60414 128.277 9.14944 127.989 8.3011C127.702 7.45231 128.156 6.5296 129.005 6.24179C129.071 6.21952 129.101 6.21064 129.129 6.19957C129.152 6.19057 129.177 6.17852 129.209 6.16204Z" fill="black"/>
<path d="M127.457 6.89036C128.289 6.55754 129.232 6.96143 129.565 7.79337C129.898 8.62532 129.494 9.56886 128.662 9.90194C128.631 9.91435 128.586 9.93515 128.47 9.99341C128.377 10.0399 128.212 10.1239 128.034 10.1951C127.202 10.5279 126.258 10.124 125.925 9.29212C125.592 8.46009 125.996 7.51655 126.828 7.18355C126.859 7.17113 126.904 7.15033 127.02 7.09207C127.113 7.04557 127.279 6.96157 127.457 6.89036Z" fill="black"/>
<path d="M96.5769 5.73589C107.319 -1.91201 121.772 -1.91192 132.514 5.73589C133.089 6.14531 133.334 6.87886 133.119 7.55128C132.942 8.10559 132.485 8.50659 131.935 8.63254L131.932 8.63488L130.466 9.13681C130.423 9.15178 130.378 9.16549 130.333 9.17669C130.399 9.16003 130.438 9.13877 130.396 9.15792C130.384 9.1635 130.373 9.16918 130.352 9.17903C130.334 9.18733 130.309 9.19948 130.281 9.21187C130.251 9.22562 130.208 9.23953 130.159 9.25878L128.693 9.88971C128.682 9.89468 128.67 9.89909 128.658 9.90378C128.627 9.91619 128.582 9.93699 128.466 9.99525C128.392 10.0319 128.272 10.0867 128.137 10.1454L128.14 10.1477C119.563 14.3476 109.486 14.3477 100.909 10.1477C100.771 10.0874 100.647 10.0287 100.557 9.98118C100.433 9.91609 100.392 9.89157 100.344 9.86625C100.104 9.76569 99.875 9.66573 99.6565 9.57073C99.4141 9.46535 99.1837 9.36731 98.9458 9.26816C98.9117 9.25394 98.878 9.23777 98.8449 9.22125C98.8119 9.20473 98.7864 9.1928 98.7628 9.18372C98.7341 9.17268 98.7042 9.1634 98.6385 9.14151C98.3759 9.05396 98.1249 8.96673 97.8856 8.8835C97.6675 8.80764 97.4575 8.73511 97.243 8.66303C97.2348 8.66089 97.2264 8.66022 97.2195 8.65834C97.1821 8.64811 97.1501 8.63882 97.1304 8.63254C97.1117 8.62656 97.0945 8.62058 97.0882 8.61847C97.0793 8.6155 97.0802 8.61506 97.0835 8.61612C97.0879 8.61752 97.1048 8.62386 97.1281 8.63019C97.1385 8.63304 97.1539 8.63517 97.1726 8.63958L97.175 8.63723C96.6164 8.51629 96.151 8.11189 95.9717 7.55128C95.7568 6.87886 96.0018 6.14531 96.5769 5.73589ZM127.933 6.68346C119.615 2.09974 109.476 2.09966 101.158 6.68346C101.326 6.7564 101.49 6.82873 101.659 6.89924C101.694 6.91357 101.729 6.92949 101.763 6.94615C101.825 6.97752 101.886 7.00968 101.934 7.03528C101.988 7.06431 102.027 7.08529 102.07 7.10799C102.154 7.15199 102.199 7.17274 102.225 7.18304C102.262 7.19808 102.301 7.21449 102.337 7.2323C110.014 10.9912 119.038 10.9913 126.714 7.2323L126.824 7.18304C126.855 7.17062 126.9 7.15198 127.016 7.09391C127.103 7.05068 127.251 6.97394 127.415 6.90628L127.933 6.68346Z" fill="black"/>
<path d="M65.1299 15.9448C66.023 15.9448 66.7508 16.6678 66.7553 17.5608C66.7572 17.9796 66.5973 18.36 66.3378 18.6491C66.2912 18.7051 66.236 18.782 66.1479 18.9142C66.073 19.0265 65.9489 19.2156 65.8242 19.3903C65.6119 19.6875 65.431 19.9433 65.2519 20.23C65.2343 20.2581 65.2149 20.2851 65.1956 20.3121C65.0299 20.5441 64.9229 20.735 64.6866 21.1142L64.1777 22.0524C59.7127 30.4961 51.5796 36.4241 42.1608 38.0602C41.7071 38.1429 41.394 38.208 41.1405 38.2924C40.9717 38.3487 40.829 38.3758 40.777 38.3862C40.7247 38.3967 40.7621 38.3912 40.8051 38.3768C40.7658 38.3899 40.7257 38.402 40.6855 38.412C40.6019 38.4329 40.5181 38.4544 40.4345 38.4753C40.3583 38.4944 40.2809 38.5102 40.2047 38.5293C39.5697 38.6986 38.9905 38.8566 38.4174 39.0476C38.3339 39.0755 38.2602 39.0943 38.2016 39.1086C38.1797 39.114 38.1592 39.1167 38.143 39.1204C37.5997 39.3097 36.9909 39.2013 36.5481 38.8178C36.0523 38.3883 35.863 37.7023 36.0696 37.0798C40.2202 24.5838 51.9051 16.1073 65.0502 15.9472C65.0597 15.9467 65.0695 15.9451 65.0783 15.9448H65.1299ZM61.9213 19.4114C52.5209 20.6094 44.3308 26.5618 40.3266 35.1471C40.7581 35.0198 41.1981 34.9352 41.5932 34.8633L41.6049 34.861C50.0311 33.3973 57.3124 28.0954 61.3092 20.5372L61.3185 20.5232L61.8627 19.517L61.9119 19.4302C61.9156 19.4244 61.9176 19.4173 61.9213 19.4114ZM65.1487 19.1909H65.1862C65.2046 19.1903 65.2241 19.1877 65.2449 19.1862C65.2868 19.1832 65.3376 19.179 65.3926 19.1698C65.4053 19.1677 65.4181 19.1609 65.4325 19.1581C65.3401 19.1754 65.2459 19.1899 65.1487 19.1909ZM65.5263 19.137C65.5664 19.1266 65.6089 19.1112 65.6553 19.0948C65.6125 19.1094 65.5706 19.1259 65.5263 19.137ZM66.692 17.847C66.7045 17.7657 66.7131 17.6866 66.7131 17.6101C66.7131 17.69 66.7036 17.7688 66.692 17.847Z" fill="black"/>
<path d="M16.5767 63.8116C17.0692 63.4469 17.7274 63.3904 18.2748 63.6662C18.8218 63.9421 19.1661 64.5031 19.1661 65.1157L19.1648 65.3675C19.1648 65.8836 19.1671 66.3587 19.2023 66.7818C19.2235 67.0362 19.2448 67.3016 19.2657 67.5628C19.2859 67.8159 19.3043 68.0662 19.3243 68.3063C19.3444 68.4687 19.3661 68.638 19.3853 68.8012C19.4063 68.9802 19.4262 69.1521 19.4463 69.3125C20.8031 78.7458 17.6788 88.2972 11.0883 95.1377L11.0907 95.14C10.7752 95.4949 10.4269 95.8842 10.0352 96.2799C9.97025 96.3609 9.91422 96.4316 9.87336 96.4793C9.80719 96.5565 9.77785 96.5918 9.75139 96.627C9.70543 96.6883 9.65543 96.7464 9.60128 96.8006C9.4108 96.9911 9.23252 97.2208 8.98443 97.5511C8.90978 97.6716 8.84432 97.7708 8.79679 97.8326C8.77834 97.8566 8.76052 97.8794 8.74753 97.8959C8.73319 97.9142 8.72523 97.9253 8.71704 97.9358C8.70573 97.9528 8.69994 97.9579 8.71704 97.9358C8.65776 98.0247 8.58855 98.1089 8.51299 98.1844C8.56954 98.1279 8.58893 98.0899 8.54695 98.1529L8.46842 98.2712C8.43277 98.3247 8.38442 98.3949 8.3277 98.4706C7.96315 98.9565 7.35749 99.1981 6.75858 99.0968C6.15945 98.995 5.66646 98.5666 5.48265 97.9874C1.50217 85.4268 6.01127 71.6367 16.5767 63.8116ZM16.0795 68.4463C9.15267 74.9297 5.99465 84.6049 7.79527 93.9251C8.0884 93.6247 8.36548 93.322 8.66544 92.9845L8.71235 92.9329C14.6489 86.7982 17.4565 78.2093 16.2306 69.7465L16.2259 69.716C16.2041 69.5416 16.181 69.3579 16.1603 69.1812C16.1392 69.0023 16.1193 68.8303 16.0993 68.6699C16.0965 68.6478 16.0941 68.6241 16.0922 68.6019C16.088 68.5506 16.0837 68.4982 16.0795 68.4463Z" fill="black"/>
<path d="M210.7 63.6278C211.248 63.3525 211.906 63.4093 212.398 63.7756C222.962 71.6432 227.427 85.3882 223.492 97.9443C223.309 98.5288 222.811 98.959 222.207 99.0584C221.602 99.1577 220.992 98.9092 220.631 98.4134L220.295 97.9514C220.283 97.9338 220.27 97.9155 220.258 97.8974C220.234 97.8608 220.197 97.8103 220.141 97.7309C220.108 97.6858 220.068 97.627 220.026 97.5667L219.268 96.6496C219.252 96.6301 219.236 96.609 219.221 96.5887C219.195 96.5534 219.166 96.5182 219.099 96.4409C219.053 96.3867 218.985 96.3047 218.909 96.2087C218.766 96.0485 218.621 95.8929 218.459 95.7208C218.306 95.5582 218.138 95.3795 217.966 95.1884C211.344 88.3006 208.252 78.7658 209.57 69.3156C209.611 68.9809 209.64 68.7357 209.64 68.429C209.64 68.384 209.641 68.3378 209.645 68.293C209.665 68.045 209.687 67.7857 209.708 67.5237C209.728 67.2693 209.748 67.0119 209.769 66.7637C209.806 66.2453 209.807 65.6754 209.807 65.0773C209.807 64.4641 210.152 63.9034 210.7 63.6278ZM212.879 68.5627C212.871 69.0313 212.826 69.4129 212.788 69.719L212.785 69.7425C211.635 77.9487 214.2 86.2304 219.761 92.3551L220.307 92.9415L220.349 92.986C220.499 93.1544 220.651 93.3171 220.821 93.4973C220.931 93.6147 221.049 93.7422 221.17 93.875C222.943 84.5624 219.809 74.9197 212.891 68.4173C212.887 68.466 212.883 68.5146 212.879 68.5627Z" fill="black"/>
<path d="M163.935 15.9448C177.07 16.0775 188.78 24.6083 192.979 37.0728C193.189 37.6957 193.001 38.384 192.505 38.8154C192.069 39.1945 191.472 39.307 190.934 39.1297C190.901 39.1228 190.852 39.1146 190.802 39.1016C190.758 39.0899 190.697 39.0716 190.624 39.0453L188.818 38.5246C188.751 38.5078 188.683 38.4921 188.616 38.4753C188.533 38.4544 188.449 38.4329 188.366 38.412C188.325 38.402 188.285 38.39 188.246 38.3768C188.289 38.3912 188.326 38.3967 188.274 38.3862C188.244 38.3801 188.184 38.3615 188.105 38.3417C187.689 38.2585 187.288 38.1801 186.848 38.1001L185.968 37.9359C176.924 36.0929 169.157 30.2763 164.831 22.097C164.825 22.0861 164.818 22.0751 164.812 22.0641C164.749 21.9381 164.676 21.8042 164.578 21.6302C164.487 21.4692 164.373 21.2668 164.268 21.0579C164.217 20.9552 164.156 20.8499 164.057 20.685C163.986 20.5658 163.896 20.4049 163.801 20.2276C163.622 19.941 163.44 19.6874 163.228 19.3903C163.197 19.346 163.166 19.2992 163.139 19.2519C163.043 19.084 162.917 18.906 162.786 18.7406C162.714 18.6683 162.639 18.5885 162.575 18.492C162.374 18.1908 162.296 17.8622 162.296 17.5679C162.296 17.1346 162.469 16.7187 162.776 16.4139C163.084 16.1091 163.502 15.9404 163.935 15.9448ZM167.172 19.6061C167.235 19.7321 167.309 19.866 167.406 20.04C167.492 20.1924 167.598 20.3825 167.697 20.5794C171.569 27.9011 178.525 33.1064 186.616 34.7554L187.404 34.9032L187.416 34.9055C187.88 34.99 188.303 35.0727 188.71 35.1542C184.667 26.5711 176.451 20.5895 167.059 19.4044C167.095 19.4697 167.137 19.5355 167.172 19.6061ZM164.264 16.0199C164.248 16.0169 164.235 16.0104 164.221 16.0081C164.207 16.0058 164.192 16.0077 164.179 16.0058C164.207 16.0097 164.235 16.0145 164.264 16.0199ZM163.963 15.987C163.963 15.987 163.961 15.9869 163.961 15.9894C164.006 15.9894 164.05 15.9904 164.095 15.9941C164.088 15.9935 164.08 15.9922 164.074 15.9917C164.053 15.9902 164.033 15.9876 164.015 15.987H163.963Z" fill="black"/>
<path d="M190.944 189.967C191.528 189.761 192.179 189.904 192.621 190.338C193.063 190.772 193.22 191.42 193.025 192.008C188.867 204.525 177.15 213.01 163.979 213.143L163.976 213.141C163.971 213.141 163.967 213.143 163.962 213.143C163.069 213.143 162.344 212.422 162.339 211.529C162.337 211.151 162.47 210.805 162.686 210.528C162.77 210.403 162.86 210.275 162.942 210.157C163.022 210.041 163.095 209.935 163.16 209.838C163.185 209.791 163.21 209.742 163.24 209.698C163.323 209.572 163.407 209.447 163.491 209.322C163.565 209.211 163.641 209.099 163.716 208.987L163.826 208.799H163.831C163.931 208.609 164.028 208.438 164.112 208.302C164.225 208.12 164.29 208.02 164.354 207.908L164.882 206.935C169.348 198.499 177.478 192.581 186.891 190.946C187.27 190.877 187.72 190.792 188.172 190.739C188.239 190.723 188.29 190.707 188.317 190.702C188.37 190.691 188.332 190.697 188.289 190.711C188.329 190.698 188.369 190.686 188.409 190.676C188.493 190.655 188.576 190.633 188.66 190.612C188.743 190.592 188.827 190.572 188.911 190.552C188.925 190.548 188.939 190.543 188.953 190.54C189.637 190.388 190.287 190.199 190.944 189.967ZM162.386 211.365C162.384 211.386 162.382 211.405 162.381 211.424V211.466C162.382 211.407 162.388 211.348 162.395 211.29C162.392 211.317 162.388 211.342 162.386 211.365ZM162.449 211.018C162.428 211.088 162.416 211.151 162.407 211.201C162.418 211.139 162.431 211.078 162.449 211.018ZM163.577 209.946C163.547 209.954 163.517 209.965 163.486 209.974H163.491C163.52 209.965 163.548 209.953 163.577 209.946ZM163.925 209.899C163.841 209.901 163.755 209.91 163.667 209.927C163.751 209.912 163.836 209.901 163.925 209.899ZM188.629 193.95C188.294 193.984 187.962 194.049 187.459 194.14L187.447 194.142C179.021 195.606 171.74 200.908 167.743 208.466L167.736 208.48L167.189 209.486C167.184 209.497 167.179 209.509 167.173 209.519C167.141 209.575 167.104 209.63 167.07 209.686C176.518 208.518 184.753 202.55 188.77 193.927C188.723 193.936 188.677 193.945 188.629 193.95Z" fill="black"/>
<path d="M6.93869 129.895C7.56248 129.846 8.1506 130.163 8.46325 130.698L8.59225 130.827C8.81105 131.045 8.98988 131.303 9.06369 131.404C9.09388 131.439 9.12529 131.468 9.14812 131.497C9.19916 131.563 9.24477 131.627 9.26774 131.659C9.29701 131.7 9.30384 131.711 9.30761 131.716L9.26305 131.664L9.43427 131.868L9.99014 132.569L10.0417 132.635L10.2505 132.914C10.3866 133.069 10.5144 133.216 10.6422 133.357L11.0644 133.801L11.0855 133.824C17.7135 140.717 20.8078 150.262 19.4822 159.72C19.4631 159.874 19.4437 160.04 19.4236 160.211C19.4055 160.364 19.3862 160.524 19.3673 160.677L19.304 161.449C19.2837 161.703 19.2612 161.959 19.2407 162.207L19.243 162.209C19.206 162.727 19.2055 163.297 19.2055 163.895C19.2052 164.508 18.859 165.069 18.3119 165.345C17.7647 165.62 17.1084 165.564 16.6161 165.199C6.04645 157.372 1.58564 143.582 5.51969 131.028L5.60882 130.801C5.85779 130.291 6.36139 129.942 6.93869 129.895ZM7.8417 135.088C6.06424 144.411 9.20163 154.082 16.1188 160.562C16.1231 160.511 16.1287 160.458 16.1329 160.408L16.14 160.342C16.16 160.181 16.1799 160.01 16.2009 159.831C16.2217 159.654 16.2425 159.47 16.2643 159.296L16.269 159.27C17.4546 150.81 14.6913 142.271 8.76816 136.097L8.23808 135.536C8.09798 135.382 7.96664 135.231 7.8417 135.088ZM8.51954 130.789C8.50377 130.758 8.48793 130.73 8.47497 130.712C8.4723 130.708 8.46776 130.705 8.46559 130.702C8.48243 130.731 8.50439 130.759 8.51954 130.789Z" fill="black"/>
<path d="M100.925 218.85C109.498 214.658 119.569 214.662 128.14 218.859C128.274 218.918 128.392 218.975 128.466 219.011L128.658 219.103L128.682 219.113C128.946 219.223 129.195 219.332 129.434 219.436L130.148 219.741L130.246 219.788C130.279 219.804 130.305 219.814 130.328 219.823C130.357 219.834 130.387 219.843 130.452 219.865C130.482 219.875 130.512 219.886 130.542 219.898C130.596 219.92 130.649 219.938 130.746 219.971C130.818 219.995 130.92 220.032 131.036 220.076L131.041 220.077C131.104 220.098 131.168 220.119 131.231 220.14C131.293 220.161 131.354 220.18 131.416 220.201C131.487 220.224 131.556 220.254 131.623 220.287C131.596 220.274 131.568 220.262 131.543 220.252C131.535 220.249 131.527 220.245 131.522 220.243C131.535 220.247 131.584 220.264 131.639 220.285C131.648 220.288 131.654 220.294 131.663 220.297C131.686 220.304 131.723 220.314 131.771 220.328C131.835 220.346 131.942 220.377 132.045 220.412C132.624 220.605 133.045 221.107 133.136 221.711C133.226 222.315 132.969 222.919 132.472 223.273C121.73 230.92 107.277 230.92 96.5347 223.273C96.0372 222.919 95.7808 222.315 95.8709 221.711C95.9612 221.107 96.3824 220.605 96.9615 220.412C97.0642 220.377 97.1764 220.346 97.2406 220.328C97.2967 220.312 97.3294 220.299 97.3532 220.292L97.501 220.233L97.5901 220.201C97.6525 220.18 97.7177 220.161 97.7801 220.14C97.8427 220.119 97.9051 220.098 97.9677 220.077L98.4955 219.884C98.6501 219.814 98.7801 219.764 98.8825 219.729L100.313 219.12L100.44 219.07C100.467 219.061 100.509 219.043 100.604 218.997C100.637 218.982 100.72 218.944 100.775 218.918C100.818 218.898 100.869 218.874 100.925 218.85ZM126.716 221.775C119.039 218.016 110.014 218.016 102.337 221.775C102.301 221.792 102.264 221.809 102.227 221.824C102.186 221.841 102.152 221.858 102.002 221.93C101.903 221.977 101.756 222.033 101.589 222.096L101.591 222.1L101.097 222.311C109.424 226.909 119.58 226.909 127.908 222.311C127.748 222.242 127.592 222.174 127.431 222.107C127.261 222.038 127.103 221.96 127.014 221.915C126.898 221.857 126.857 221.836 126.826 221.824C126.789 221.809 126.752 221.792 126.716 221.775ZM130.474 223.315C130.496 223.324 130.514 223.329 130.495 223.322C130.49 223.321 130.48 223.315 130.466 223.311C130.469 223.312 130.471 223.314 130.474 223.315Z" fill="black"/>
<path d="M222.257 129.914C222.856 130.016 223.347 130.444 223.531 131.024C227.511 143.584 223.003 157.372 212.482 165.197C211.989 165.563 211.332 165.62 210.783 165.345C210.235 165.069 209.89 164.509 209.89 163.895V163.644C209.89 163.128 209.888 162.651 209.852 162.228C209.831 161.974 209.81 161.71 209.789 161.449C209.769 161.196 209.753 160.945 209.733 160.705C209.713 160.543 209.689 160.374 209.669 160.211C209.648 160.031 209.628 159.858 209.608 159.697L209.611 159.695C208.252 150.24 211.39 140.662 218.012 133.819C218.164 133.649 218.318 133.482 218.455 133.336C218.595 133.187 218.714 133.054 218.826 132.928C218.876 132.855 218.95 132.764 219.03 132.665L219.398 132.18C219.517 132.032 219.631 131.897 219.734 131.774L219.785 131.716C219.789 131.711 219.796 131.7 219.825 131.659C219.848 131.627 219.894 131.563 219.945 131.497C219.998 131.429 220.074 131.34 220.168 131.246C220.14 131.274 220.123 131.293 220.121 131.296L220.28 131.08C220.3 131.055 220.326 131.03 220.351 131C220.401 130.933 220.443 130.875 220.496 130.801C220.548 130.728 220.611 130.641 220.686 130.54C221.051 130.054 221.658 129.812 222.257 129.914ZM220.822 135.555C220.661 135.726 220.525 135.874 220.4 136.017C220.382 136.038 220.362 136.059 220.344 136.078C214.407 142.213 211.598 150.801 212.824 159.263L212.829 159.296C212.85 159.47 212.874 159.654 212.894 159.831L212.955 160.342L212.962 160.408C212.966 160.456 212.97 160.506 212.974 160.555C219.86 154.078 223.011 144.421 221.223 135.114C221.084 135.269 220.947 135.422 220.822 135.555Z" fill="black"/>
<path d="M37.6106 189.797C37.9127 189.797 38.198 189.888 38.3729 189.938C38.6627 190.02 39.2031 190.179 40.2352 190.489C40.3012 190.506 40.3684 190.519 40.4345 190.536L40.6855 190.599L40.8051 190.634C40.7621 190.62 40.7248 190.615 40.777 190.625C40.8071 190.631 40.8656 190.65 40.9435 190.67L40.9458 190.667C41.3618 190.751 41.7634 190.831 42.203 190.911L43.0826 191.075C52.1266 192.918 59.8944 198.735 64.2199 206.914C64.2256 206.925 64.2332 206.936 64.2386 206.947C64.3244 207.119 64.4002 207.272 64.4755 207.414L64.7077 207.82L64.7816 207.952C64.856 208.101 64.92 208.217 64.9751 208.308L65.1229 208.519L65.2331 208.671C65.2672 208.723 65.299 208.777 65.3269 208.833C65.298 208.775 65.2683 208.731 65.2894 208.763C65.3001 208.779 65.3196 208.818 65.3504 208.868L65.6037 209.246C65.6872 209.371 65.7712 209.496 65.8547 209.621C65.8741 209.65 65.8889 209.682 65.9063 209.712C65.9133 209.724 65.9227 209.734 65.9297 209.745C65.9462 209.773 65.9607 209.804 65.9766 209.834C66.0769 210.007 66.1698 210.144 66.2698 210.273C66.4125 210.417 66.5142 210.567 66.5794 210.698C66.6744 210.888 66.7135 211.059 66.7319 211.169C66.7417 211.228 66.7475 211.282 66.7506 211.326C66.7522 211.349 66.7523 211.37 66.753 211.389C66.7533 211.399 66.7552 211.409 66.7553 211.418V211.441C66.7553 211.442 66.755 211.443 65.1323 211.443L66.7553 211.441C66.7554 211.874 66.5824 212.293 66.2745 212.597C65.9666 212.902 65.5491 213.071 65.1159 213.067C51.981 212.934 40.271 204.403 36.072 191.939C35.9051 191.443 35.9876 190.897 36.2924 190.473C36.5973 190.049 37.0882 189.797 37.6106 189.797ZM40.3384 193.855C44.3802 202.438 52.5961 208.418 61.987 209.605C61.9626 209.558 61.9371 209.514 61.9143 209.469C61.6863 209.096 61.5022 208.734 61.3514 208.432C57.3546 200.874 50.0732 195.572 41.6471 194.108L41.6354 194.106C41.17 194.021 40.7467 193.936 40.3384 193.855Z" fill="black"/>
<path d="M206.495 114.509C206.495 111.084 206.33 107.71 205.96 104.384C204.108 87.6731 197.767 72.2779 188.174 59.4752C171.375 37.0371 144.618 22.5506 114.484 22.5505C104.233 22.5505 94.3933 24.2383 85.1709 27.3259L85.1685 27.3236C81.514 28.5555 77.9746 30.0405 74.5037 31.6932L74.5014 31.6908C60.7561 38.3594 48.9449 48.3225 40.0535 60.5471L40.0512 60.5447C30.9535 73.0999 24.9469 88.0424 23.1357 104.259C22.7649 107.596 22.5587 111.054 22.5587 114.509C22.5587 116.115 22.6008 117.72 22.683 119.282C23.054 126.123 24.1237 132.749 25.8916 139.08L25.8939 139.087C27.9513 146.575 30.9562 153.695 34.7434 160.281C36.7641 163.786 38.986 167.159 41.4514 170.364C48.5771 179.631 57.3884 187.536 67.472 193.544C73.4848 197.127 79.9056 200.048 86.6931 202.187L88.3443 202.689C96.6338 205.13 105.418 206.468 114.527 206.468C127.167 206.468 139.187 203.916 150.136 199.307L150.138 199.305C159.109 195.56 167.343 190.415 174.589 184.158C189.658 171.148 200.442 153.324 204.6 133.116C205.835 127.105 206.495 120.89 206.495 114.509ZM209.739 114.509C209.739 121.114 209.058 127.549 207.78 133.77C203.475 154.698 192.307 173.151 176.71 186.616C169.21 193.092 160.685 198.42 151.39 202.3L151.388 202.298C140.05 207.07 127.607 209.714 114.527 209.714C104.469 209.714 94.7951 208.138 85.7197 205.283C78.683 203.066 72.031 200.039 65.8114 196.333C56.02 190.499 47.3933 182.942 40.281 174.124L38.8784 172.344C36.3167 169.014 34.0159 165.518 31.9312 161.902L31.9288 161.899C28.0087 155.082 24.8969 147.71 22.7651 139.953C20.9306 133.383 19.8247 126.521 19.4416 119.456C19.3562 117.835 19.3126 116.17 19.3126 114.509C19.3126 110.927 19.5251 107.347 19.9083 103.898C21.7837 87.1073 28.0082 71.6373 37.4266 58.6402L37.4289 58.6379C46.6331 45.9833 58.8617 35.6697 73.0964 28.766L73.1081 28.7613C76.6734 27.0638 80.3362 25.5296 84.1365 24.2486H84.1412C93.6871 21.0528 103.873 19.3044 114.484 19.3044C145.682 19.3045 173.385 34.3081 190.771 57.5285C200.7 70.781 207.267 86.7214 209.185 104.025C209.569 107.485 209.739 110.98 209.739 114.509Z" fill="black"/>
<path d="M197.958 95.5865C198.831 95.3885 199.701 95.9373 199.9 96.8109C202.382 107.727 202.379 119.265 200.329 129.901C200.159 130.78 199.309 131.355 198.429 131.186C197.55 131.016 196.973 130.166 197.142 129.286C199.113 119.061 199.11 107.976 196.733 97.5286C196.535 96.655 197.084 95.7852 197.958 95.5865Z" fill="black"/>
<path d="M193.346 80.9911C194.176 80.6544 195.122 81.0543 195.459 81.8847C196.109 83.4887 196.668 85.1252 197.178 86.7398C197.448 87.5942 196.975 88.5056 196.121 88.7757C195.266 89.0454 194.355 88.5717 194.085 87.7178C193.589 86.1489 193.059 84.6 192.452 83.1043C192.116 82.2738 192.515 81.3279 193.346 80.9911Z" fill="black"/>
<path d="M175.62 54.3452C176.269 53.7279 177.299 53.7541 177.916 54.4038C183.614 60.4019 188.135 67.1951 191.956 74.4552C192.373 75.2482 192.069 76.2284 191.276 76.6458C190.483 77.0633 189.502 76.7588 189.085 75.9657C185.366 68.8997 181.005 62.3723 175.561 56.6414C174.944 55.9916 174.97 54.9625 175.62 54.3452Z" fill="black"/>
<path d="M134.988 29.4032C145.138 31.93 154.515 36.5856 163.23 42.0429C163.989 42.5186 164.221 43.5209 163.746 44.2805C163.27 45.0398 162.267 45.2695 161.508 44.7941C152.964 39.444 143.91 34.9669 134.204 32.5508C133.335 32.3343 132.806 31.455 133.022 30.5853C133.239 29.7156 134.118 29.1867 134.988 29.4032Z" fill="black"/>
<path d="M75.4903 36.1219C90.5147 28.3324 107.596 25.7835 124.367 27.4859C125.259 27.5764 125.91 28.3722 125.819 29.2638C125.729 30.1551 124.933 30.8056 124.041 30.7156C107.801 29.067 91.3666 31.5442 76.982 39.0021C76.1865 39.4142 75.2085 39.1033 74.796 38.3079C74.384 37.5123 74.6948 36.5343 75.4903 36.1219Z" fill="black"/>
<path d="M66.2894 41.4135C67.0524 40.9439 68.0523 41.181 68.5223 41.9435C68.9918 42.7065 68.7548 43.7065 67.9922 44.1764C65.868 45.4836 63.8184 46.9162 61.8471 48.4358C61.1373 48.9828 60.1191 48.8522 59.572 48.1426C59.0248 47.4328 59.1576 46.4123 59.8675 45.8652C61.917 44.2854 64.0577 42.7868 66.2894 41.4135Z" fill="black"/>
<path d="M52.2208 52.6092C52.8603 51.9813 53.8891 51.9909 54.517 52.6303C55.1449 53.2698 55.1354 54.2986 54.4959 54.9265C52.2414 57.14 50.1099 59.5184 48.142 62.0192L48.135 62.0239C38.58 74.0394 33.0263 88.3723 31.0905 103.611C30.9776 104.5 30.1664 105.129 29.2775 105.016C28.3884 104.903 27.7597 104.092 27.8725 103.203C29.8744 87.4439 35.6294 72.5362 45.5949 60.0044C47.647 57.3971 49.8695 54.9177 52.2208 52.6092Z" fill="black"/>
<path d="M28.7075 112.292C29.6032 112.303 30.3198 113.038 30.3095 113.933C30.2272 121.009 31.0106 128.04 33.0865 134.757C33.3512 135.613 32.8709 136.523 32.0146 136.788C31.1586 137.052 30.2504 136.572 29.9858 135.716C27.7892 128.609 26.9804 121.23 27.0657 113.896C27.0761 113 27.8113 112.281 28.7075 112.292Z" fill="black"/>
<path d="M71.0963 188.184C71.5367 187.404 72.5277 187.127 73.308 187.567C78.402 190.443 83.8289 192.786 89.4214 194.555C90.2757 194.825 90.7493 195.738 90.4792 196.593C90.209 197.447 89.2974 197.92 88.4433 197.651C82.642 195.816 77.0076 193.385 71.7131 190.396C70.9329 189.956 70.6562 188.965 71.0963 188.184Z" fill="black"/>
<path d="M99.0448 196.943C102.776 197.681 106.55 198.133 110.322 198.297C111.216 198.336 111.91 199.093 111.872 199.988C111.833 200.883 111.074 201.579 110.179 201.54C106.243 201.369 102.308 200.898 98.4162 200.129C97.5372 199.955 96.9644 199.101 97.1379 198.222C97.3118 197.343 98.1658 196.77 99.0448 196.943Z" fill="black"/>
<path d="M166.505 180.38C167.204 179.82 168.225 179.932 168.785 180.631C169.346 181.33 169.233 182.353 168.534 182.913C154.509 194.158 137.006 200.381 119.317 201.489C118.423 201.545 117.651 200.864 117.595 199.969C117.54 199.075 118.221 198.306 119.115 198.25C136.198 197.18 153.048 191.169 166.505 180.38Z" fill="black"/>
<path d="M80.3645 13.0227C81.2129 12.7352 82.1334 13.1899 82.4215 14.0383L86.2329 25.2637C86.521 26.1123 86.0681 27.0347 85.2196 27.323C84.371 27.6112 83.4485 27.1561 83.1603 26.3075L79.3489 15.0797C79.0614 14.2313 79.5161 13.3108 80.3645 13.0227Z" fill="black"/>
<path d="M69.6642 21.6045C70.4704 21.2132 71.44 21.5489 71.8314 22.355L75.3097 29.5181C75.7009 30.3243 75.363 31.294 74.5568 31.6853C73.7506 32.0763 72.7809 31.7409 72.3896 30.9348L68.9136 23.7717C68.5223 22.9655 68.858 21.9959 69.6642 21.6045Z" fill="black"/>
<path d="M137.248 11.4216C138.123 11.6134 138.678 12.4789 138.486 13.3543L136.349 23.1138C136.158 23.9893 135.292 24.5438 134.417 24.3522C133.541 24.1604 132.987 23.295 133.178 22.4195L135.315 12.66C135.507 11.7846 136.372 11.23 137.248 11.4216Z" fill="black"/>
<path d="M152.064 17.9247C152.402 17.0947 153.349 16.6953 154.18 17.0335C155.009 17.3718 155.407 18.3192 155.068 19.1491L151.384 28.1979C151.046 29.0276 150.098 29.4269 149.268 29.0892C148.438 28.7511 148.039 27.8034 148.377 26.9736L152.064 17.9247Z" fill="black"/>
<path d="M198.258 49.9179C198.975 49.3801 199.993 49.5269 200.531 50.2439C201.068 50.9609 200.924 51.9789 200.207 52.5166L190.487 59.804C189.77 60.3417 188.752 60.1973 188.215 59.4803C187.677 58.7633 187.824 57.7453 188.541 57.2076L198.258 49.9179Z" fill="black"/>
<path d="M215.425 101.668C216.316 101.566 217.122 102.204 217.224 103.094C217.326 103.984 216.686 104.788 215.796 104.891L207.753 105.812C206.863 105.914 206.059 105.276 205.957 104.386C205.855 103.496 206.493 102.692 207.383 102.59L215.425 101.668Z" fill="black"/>
<path d="M213.602 115.232C214.498 115.253 215.209 115.997 215.187 116.893C215.166 117.788 214.422 118.496 213.527 118.476L208.081 118.349C207.185 118.328 206.474 117.584 206.495 116.689C206.516 115.793 207.26 115.082 208.156 115.103L213.602 115.232Z" fill="black"/>
<path d="M189.078 168.351C189.601 167.623 190.615 167.457 191.343 167.98L201.018 174.934C201.746 175.457 201.914 176.472 201.391 177.2C200.868 177.928 199.853 178.093 199.125 177.571L189.448 170.616C188.72 170.093 188.555 169.078 189.078 168.351Z" fill="black"/>
<path d="M135.85 204.416C136.721 204.208 137.597 204.745 137.806 205.617L139.607 213.157C139.815 214.029 139.278 214.905 138.406 215.113C137.535 215.322 136.659 214.784 136.45 213.913L134.649 206.372C134.44 205.5 134.978 204.624 135.85 204.416Z" fill="black"/>
<path d="M150.136 199.307C150.961 198.958 151.913 199.342 152.263 200.167L156.328 209.76C156.677 210.585 156.29 211.537 155.464 211.887C154.639 212.236 153.687 211.851 153.337 211.026L149.275 201.433C148.925 200.608 149.311 199.657 150.136 199.307Z" fill="black"/>
<path d="M84.6594 203.231C84.9326 202.378 85.8465 201.908 86.7 202.18C87.5532 202.454 88.0236 203.368 87.7508 204.221L84.1481 215.489C83.8752 216.342 82.9613 216.812 82.1076 216.539C81.2547 216.266 80.7845 215.354 81.0568 214.501L84.6594 203.231Z" fill="black"/>
<path d="M32.5181 159.637C33.2934 159.189 34.2854 159.453 34.7346 160.228C35.1836 161.004 34.9191 161.998 34.1435 162.447L28.573 165.672C27.7974 166.121 26.8033 165.857 26.3542 165.081C25.9052 164.305 26.1697 163.311 26.9453 162.862L32.5181 159.637Z" fill="black"/>
<path d="M39.1859 170.057C39.9004 169.517 40.92 169.657 41.461 170.372C42.0019 171.086 41.8612 172.106 41.1467 172.647L32.1823 179.432C31.4677 179.973 30.4482 179.833 29.9072 179.118C29.3668 178.404 29.5079 177.386 30.2215 176.845L39.1859 170.057Z" fill="black"/>
<path d="M20.9777 117.711C21.8727 117.665 22.6346 118.354 22.6805 119.249C22.7258 120.144 22.0388 120.906 21.1442 120.952L10.5028 121.496C9.60843 121.541 8.84635 120.854 8.8 119.96C8.75419 119.065 9.44354 118.301 10.3386 118.255L20.9777 117.711Z" fill="black"/>
<path d="M16.0036 101.794L21.7008 102.422C22.5914 102.521 23.2339 103.322 23.1357 104.213C23.0372 105.104 22.235 105.748 21.3443 105.65L15.6471 105.021C14.7564 104.923 14.1135 104.12 14.2117 103.229C14.3101 102.338 15.1129 101.696 16.0036 101.794Z" fill="black"/>
<path d="M27.7137 51.5015C28.2435 50.7787 29.2589 50.6223 29.9818 51.152L39.699 58.2728C40.4218 58.8024 40.58 59.818 40.0509 60.5409C39.5212 61.2637 38.5057 61.4198 37.7828 60.8904L28.0632 53.7695C27.3404 53.2397 27.184 52.2243 27.7137 51.5015Z" fill="black"/>
<path d="M112.904 166.534V153.13C112.904 152.233 113.63 151.507 114.527 151.507C115.423 151.507 116.15 152.233 116.15 153.13V166.534C116.15 167.43 115.423 168.157 114.527 168.157C113.63 168.157 112.904 167.43 112.904 166.534Z" fill="black"/>
<path d="M112.904 52.474V39.8225C112.904 38.9263 113.63 38.1995 114.527 38.1995C115.423 38.1995 116.15 38.9263 116.15 39.8225V52.474C116.149 53.3699 115.423 54.097 114.527 54.097C113.631 54.097 112.904 53.3699 112.904 52.474Z" fill="black"/>
<path d="M166.206 60.5392C166.84 59.9054 167.866 59.9055 168.5 60.5392C169.133 61.1729 169.133 62.1993 168.5 62.833L161.043 70.2893C160.41 70.923 159.383 70.923 158.75 70.2893C158.116 69.6555 158.116 68.6291 158.75 67.9954L166.206 60.5392Z" fill="black"/>
<path d="M60.5521 60.5392C61.1858 59.9055 62.2122 59.9055 62.8459 60.5392L75.0775 72.7708C75.7113 73.4046 75.7113 74.4309 75.0775 75.0647C74.4438 75.6984 73.4174 75.6984 72.7837 75.0647L60.5521 62.8331C59.9183 62.1993 59.9183 61.173 60.5521 60.5392Z" fill="black"/>
<path d="M138.578 52.1431C138.917 51.3142 139.864 50.9156 140.693 51.2542C141.523 51.5931 141.921 52.5425 141.582 53.3722L139.53 58.3985C139.191 59.2282 138.242 59.6262 137.412 59.2874C136.583 58.9485 136.185 58.0011 136.523 57.1718L138.578 52.1431Z" fill="black"/>
<path d="M51.2775 88.3371C51.6195 87.5088 52.5695 87.1135 53.3978 87.4552L66.3846 92.8192C67.2122 93.1617 67.606 94.1092 67.2642 94.9372C66.9223 95.7652 65.9743 96.1602 65.1462 95.8191L52.1594 90.4574C51.3311 90.1154 50.9358 89.1654 51.2775 88.3371Z" fill="black"/>
<path d="M175.62 87.4558C176.448 87.1153 177.396 87.5099 177.738 88.3377C178.079 89.1662 177.684 90.1164 176.856 90.458L168.52 93.8917C167.691 94.2332 166.741 93.8385 166.4 93.0099C166.059 92.1816 166.454 91.2336 167.282 90.8919L175.62 87.4558Z" fill="black"/>
<path d="M88.3531 51.2561C89.1823 50.9166 90.1289 51.3136 90.4687 52.1427L93.6116 59.8077C93.9513 60.6369 93.5543 61.5858 92.725 61.9256C91.8958 62.2654 90.947 61.8681 90.6071 61.039L87.4665 53.3717C87.127 52.5425 87.524 51.5959 88.3531 51.2561Z" fill="black"/>
<path d="M131.46 155.351C132.288 155.009 133.238 155.404 133.58 156.232L139.528 170.643C139.869 171.471 139.474 172.419 138.646 172.761C137.818 173.103 136.87 172.709 136.528 171.881L130.578 157.471C130.236 156.642 130.631 155.692 131.46 155.351Z" fill="black"/>
<path d="M102.11 163.497C102.979 163.717 103.505 164.601 103.286 165.47L99.7252 179.545C99.5051 180.413 98.6213 180.94 97.7526 180.72C96.884 180.5 96.3578 179.616 96.5775 178.747L100.138 164.672C100.358 163.804 101.242 163.277 102.11 163.497Z" fill="black"/>
<path d="M124.646 173.641C125.53 173.493 126.366 174.089 126.513 174.973L127.562 181.257C127.709 182.141 127.111 182.976 126.227 183.123C125.343 183.271 124.508 182.675 124.36 181.791L123.314 175.508C123.167 174.624 123.763 173.788 124.646 173.641Z" fill="black"/>
<path d="M23.5742 138.257L36.8545 130.256L43.5156 126.276L46.8252 124.307L48.5009 123.302C48.7942 123.134 49.0036 123.009 49.4645 122.757C49.8834 122.548 50.3442 122.422 50.8051 122.338C51.7267 122.213 52.7322 122.297 53.5701 122.674C53.989 122.841 54.4079 123.092 54.785 123.386C54.9944 123.511 55.162 123.679 55.3296 123.846C55.4134 123.93 55.4972 124.014 55.5809 124.098L55.7904 124.307L58.1365 127.365L62.8286 133.523L72.2546 145.839L86.3309 164.312L88.7189 167.454C89.2635 168.208 89.5986 169.129 89.6405 170.093C89.6824 171.014 89.4729 171.978 89.054 172.816C88.8445 173.235 88.5513 173.612 88.2161 173.947L83.5659 178.89L78.2454 184.503L67.5625 195.688C67.0598 196.19 66.2638 196.232 65.7611 195.729C65.2584 195.269 65.2165 194.473 65.6773 193.928L76.1089 182.45L81.3456 176.753L83.9849 173.905L85.2836 172.481L85.9539 171.768C86.0796 171.601 86.2052 171.475 86.289 171.308C86.6242 170.679 86.5404 169.883 86.1214 169.339L83.7754 166.323L69.6153 147.891L55.5391 129.418L53.193 126.318L52.9835 126.109C52.9417 126.067 52.8579 125.983 52.816 125.941C52.6903 125.815 52.5227 125.732 52.397 125.69C52.1038 125.564 51.7267 125.522 51.3916 125.564C51.224 125.606 51.0564 125.648 50.8889 125.69C50.8051 125.732 50.4699 125.941 50.1767 126.109L48.5009 127.072L45.1494 129.041L38.4464 132.937L25.0404 140.686C24.3702 141.063 23.4904 140.854 23.1133 140.184C22.6944 139.513 22.9458 138.676 23.5742 138.257Z" fill="black"/>
<path d="M69.3414 118.309C71.0437 117.174 73.3189 117.527 74.5999 119.139L74.6023 119.137L75.1464 119.808L75.1652 119.831L80.1024 126.152L86.9746 134.866L86.977 134.868L93.5536 143.246L93.556 143.248L98.7418 149.888C98.7667 149.915 98.7915 149.942 98.8145 149.97C100.057 151.505 99.8995 153.718 98.6058 155.083C98.589 155.101 98.5717 155.118 98.5542 155.135L86.3648 166.865C85.719 167.486 84.69 167.466 84.0686 166.82C83.4478 166.174 83.4678 165.148 84.1132 164.526L96.2627 152.832C96.4602 152.607 96.4689 152.243 96.2978 152.023C96.2766 151.998 96.2543 151.975 96.2345 151.95L90.9971 145.247L84.4251 136.873L77.5552 128.162L77.5505 128.155L72.6274 121.853L72.0833 121.184L72.0645 121.161C71.8341 120.867 71.4429 120.809 71.1427 121.009C70.397 121.506 69.3882 121.304 68.8911 120.558C68.3946 119.813 68.5964 118.806 69.3414 118.309Z" fill="black"/>
<path d="M69.3508 118.306C70.099 117.813 71.1067 118.02 71.6001 118.768C72.0935 119.516 71.8863 120.524 71.138 121.017L57.7337 129.855C56.9855 130.348 55.9778 130.141 55.4844 129.393C54.9919 128.645 55.1989 127.639 55.9465 127.146L69.3508 118.306Z" fill="black"/>
<path d="M96.3432 149.779L104.722 141.025C104.89 140.857 105.057 140.731 105.225 140.648L112.682 137.296C112.724 137.296 112.766 137.254 112.807 137.254C113.143 137.129 113.436 137.045 113.771 136.961C114.106 136.877 114.441 136.836 114.693 136.794L116.327 136.5L129.565 134.155L130.403 134.029C130.654 133.987 130.906 133.945 131.115 133.861C131.618 133.736 132.079 133.61 132.539 133.442C133.461 133.107 134.383 132.647 135.221 132.144L137.986 130.301L143.557 126.573L146.364 124.729L147.747 123.808C148.166 123.515 148.543 123.221 148.92 122.886C149.674 122.216 150.344 121.504 150.931 120.708L152.9 117.985L156.796 112.539L156.628 112.791C156.922 112.162 157.131 111.45 157.215 110.738C157.299 109.984 157.34 109.23 157.257 108.434C157.131 106.884 156.67 105.334 155.958 103.952L158.681 104.287C157.089 106.005 155.371 107.68 153.528 109.188C151.685 110.696 149.674 112.037 147.495 113.126C146.783 113.503 145.903 113.21 145.526 112.456C145.191 111.744 145.443 110.906 146.155 110.529C149.967 108.476 153.277 105.418 156.209 102.067C156.796 101.397 157.843 101.313 158.555 101.899C158.723 102.025 158.849 102.235 158.932 102.402C159.854 104.203 160.441 106.13 160.65 108.141C160.734 109.146 160.734 110.152 160.566 111.199C160.441 112.204 160.147 113.252 159.686 114.257C159.645 114.341 159.603 114.424 159.519 114.508L155.623 119.954L153.654 122.677C152.942 123.682 152.062 124.604 151.14 125.441C150.679 125.86 150.177 126.237 149.674 126.573L148.25 127.536L145.443 129.379L139.871 133.107L137.064 134.992C136.017 135.663 134.885 136.207 133.712 136.668C133.126 136.877 132.539 137.045 131.911 137.213C131.618 137.296 131.283 137.338 130.989 137.422L130.151 137.59L116.913 139.935L115.279 140.229C114.986 140.27 114.776 140.312 114.567 140.354C114.358 140.396 114.148 140.48 113.939 140.564L114.064 140.522L106.607 143.873L107.11 143.496L98.7312 152.251C98.1028 152.921 97.0135 152.963 96.3432 152.293C95.7148 151.497 95.7148 150.408 96.3432 149.779Z" fill="black"/>
<path d="M143.998 94.7381C144.846 94.4497 145.768 94.9032 146.057 95.7514C146.837 98.0468 147.06 100.354 147.105 101.62C147.137 102.515 146.437 103.267 145.541 103.299C144.646 103.33 143.894 102.632 143.862 101.737C143.823 100.657 143.628 98.6905 142.984 96.7975C142.696 95.9491 143.149 95.0269 143.998 94.7381Z" fill="black"/>
<path d="M139.993 81.0197C140.808 80.6478 141.769 81.0067 142.141 81.8219C143.064 83.8429 143.755 85.8874 144.034 88.0233C144.15 88.9117 143.524 89.727 142.636 89.8434C141.747 89.9593 140.932 89.3319 140.816 88.4431C140.592 86.7258 140.027 85.0005 139.191 83.1682C138.819 82.3529 139.178 81.3919 139.993 81.0197Z" fill="black"/>
<path d="M145.818 107.374C146.706 107.257 147.522 107.882 147.64 108.77C147.899 110.713 148.04 112.734 147.856 114.667C147.771 115.559 146.979 116.212 146.087 116.128C145.195 116.043 144.541 115.251 144.626 114.359C144.777 112.773 144.666 111.023 144.422 109.197C144.304 108.309 144.93 107.493 145.818 107.374Z" fill="black"/>
<path d="M155.874 102.609C156.46 100.682 156.712 98.7547 156.502 96.8697C156.293 94.9846 155.622 93.1833 154.575 91.5078L157.214 91.7591C155.58 93.4347 153.821 95.0265 151.894 96.4089C149.967 97.7912 147.915 99.0479 145.653 99.9276C144.982 100.179 144.228 99.8857 143.977 99.2155C143.726 98.5871 144.019 97.8331 144.647 97.5399C146.574 96.6602 148.417 95.4454 150.093 94.063C151.769 92.6807 153.318 91.1307 154.785 89.497C155.413 88.8268 156.502 88.7849 157.172 89.4552C157.256 89.5389 157.382 89.6646 157.424 89.7903C158.68 91.801 159.56 94.1468 159.853 96.5764C160.146 99.006 159.811 101.436 159.099 103.656C158.848 104.535 157.884 105.038 157.005 104.787C156.083 104.452 155.581 103.488 155.874 102.609Z" fill="black"/>
<path d="M154.327 90.2477C154.327 90.2058 154.369 90.0383 154.369 89.9126L154.411 89.5356C154.453 89.2842 154.453 89.0329 154.495 88.7397C154.537 88.237 154.537 87.6924 154.495 87.1479C154.453 86.1006 154.286 85.0534 153.992 84.0899C153.699 83.1264 153.28 82.2049 152.694 81.409C152.149 80.5712 151.437 79.9009 150.641 79.2726L152.777 79.1469C149.803 81.8279 146.578 84.3831 142.933 86.3939C142.179 86.8128 141.258 86.5195 140.839 85.7655C140.42 85.0115 140.713 84.1318 141.425 83.7129C144.693 81.8279 147.667 79.3564 150.474 76.7173C151.06 76.1308 151.982 76.1308 152.61 76.6335C153.657 77.4294 154.621 78.4348 155.417 79.5658C156.171 80.6968 156.757 81.9116 157.134 83.1683C157.511 84.425 157.72 85.7236 157.804 87.0222C157.846 87.6505 157.846 88.3208 157.804 88.9491C157.804 89.2843 157.762 89.5775 157.72 89.9126C157.72 90.0801 157.679 90.2477 157.637 90.4153C157.595 90.5828 157.595 90.7085 157.553 90.9598C157.343 91.8814 156.464 92.426 155.584 92.2584C154.704 92.0909 154.118 91.1693 154.327 90.2477Z" fill="black"/>
<path d="M140.163 67.5424C143.114 67.0006 145.512 67.3148 147.429 68.2225C149.339 69.127 150.627 70.5513 151.484 71.987C152.335 73.4127 152.785 74.8823 153.023 75.972C153.143 76.522 153.213 76.99 153.253 77.3253C153.273 77.4928 153.285 77.6287 153.292 77.7264C153.296 77.775 153.3 77.8143 153.302 77.8436C153.303 77.8583 153.304 77.8716 153.304 77.8812V77.8999C153.346 78.7952 152.654 79.5564 151.759 79.598C150.865 79.6393 150.107 78.9497 150.063 78.0571V78.0477C150.062 78.0363 150.06 78.0141 150.058 77.9844C150.053 77.9249 150.045 77.8308 150.03 77.7076C150 77.4595 149.946 77.0963 149.852 76.6639C149.66 75.7888 149.312 74.6796 148.698 73.6499C148.089 72.6303 147.24 71.7224 146.04 71.1544C144.879 70.6046 143.25 70.3114 140.941 70.704L140.111 71.1028L114.278 83.8316L114.276 83.8293L110.049 85.9238C109.246 86.3213 108.273 85.9926 107.875 85.1896C107.477 84.3865 107.806 83.4131 108.609 83.0154L112.84 80.9209L112.843 80.9185L138.692 68.185L138.706 68.178L139.754 67.6737L139.954 67.594C140.022 67.5718 140.092 67.5554 140.163 67.5424Z" fill="black"/>
<path d="M109.316 64.9856C112.936 62.0719 117.681 61.0588 122.143 62.225L123.032 62.4877L123.037 62.49L139.917 68.1027C140.768 68.3855 141.23 69.3045 140.947 70.155C140.664 71.005 139.745 71.4646 138.895 71.1823L122.012 65.5696C118.352 64.3633 114.363 65.0905 111.357 67.507L101.06 75.8779C100.419 76.4055 100.424 77.3507 101.037 77.8716L101.046 77.8786C102.454 79.0883 104.34 80.4146 106.419 81.1435C108.47 81.862 110.627 81.9781 112.755 80.923L112.757 80.9207C114.02 80.297 115.151 78.9096 116.015 77.4611C116.429 76.7672 116.747 76.1169 116.962 75.6411C117.069 75.4041 117.152 75.2116 117.204 75.0828C117.23 75.0192 117.248 74.9702 117.26 74.9398C117.266 74.9256 117.27 74.9154 117.272 74.9093C117.273 74.9062 117.274 74.9029 117.274 74.9022C117.585 74.0626 118.517 73.6337 119.357 73.9429C120.093 74.2139 120.514 74.9607 120.401 75.7067L120.319 76.0257L120.316 76.0351C120.315 76.0395 120.312 76.0447 120.309 76.0515C120.304 76.0653 120.297 76.0844 120.288 76.1078C120.27 76.1547 120.244 76.2204 120.211 76.3025C120.144 76.4666 120.046 76.698 119.92 76.978C119.668 77.5361 119.295 78.3003 118.803 79.1241C117.856 80.7123 116.324 82.7771 114.195 83.8291L114.197 83.8314C111.089 85.3728 107.989 85.1322 105.348 84.2067C102.736 83.2916 100.496 81.6866 98.9303 80.3414L98.9327 80.339C96.7886 78.5128 96.7933 75.1915 98.9984 73.3753L99.003 73.3706L100.596 72.0713L100.598 72.0689L109.311 64.9903L109.316 64.9856Z" fill="black"/>
<path d="M157.57 110.316C158.149 109.633 159.173 109.547 159.857 110.126L171.42 119.928C172.104 120.507 172.187 121.533 171.608 122.217C171.028 122.9 170.004 122.984 169.321 122.404L157.76 112.603C157.077 112.023 156.991 111 157.57 110.316Z" fill="black"/>
<path d="M122.654 135.944C123.124 135.181 124.124 134.944 124.887 135.414L146.291 148.61C147.054 149.08 147.292 150.08 146.821 150.843C146.351 151.605 145.351 151.843 144.588 151.373L123.184 138.177C122.421 137.707 122.183 136.707 122.654 135.944Z" fill="black"/>
<path d="M185.946 126.799C186.814 125.798 188.214 125.183 189.659 125.476C189.663 125.477 189.669 125.478 189.673 125.478C189.677 125.479 189.681 125.478 189.685 125.478L189.682 125.481C195.814 126.677 201.636 130.146 206.739 133.026C207.519 133.467 207.796 134.457 207.355 135.238C206.915 136.018 205.924 136.293 205.144 135.852C199.863 132.872 194.548 129.731 189.042 128.661L189.016 128.654C188.878 128.626 188.615 128.677 188.399 128.926L181.408 137.752L181.405 137.755L159.262 165.581L159.264 165.583C158.972 165.967 158.896 166.428 159.011 166.82L159.072 166.981L159.076 166.993C161.294 171.933 166.849 178.338 176.039 184.354C176.789 184.845 176.998 185.851 176.508 186.601C176.017 187.351 175.011 187.561 174.261 187.07C164.772 180.859 158.683 174.032 156.121 168.335L155.997 168.035C155.431 166.521 155.738 164.854 156.682 163.616L156.703 163.59L178.865 135.733L185.946 126.799Z" fill="black"/>
<path d="M169.926 119.492C171.325 118.056 173.262 118.082 174.863 118.476C176.498 118.88 178.263 119.77 179.913 120.766C183.188 122.742 186.602 125.519 188.162 126.636C188.89 127.158 189.059 128.173 188.537 128.902C188.015 129.63 187.002 129.796 186.274 129.275C184.44 127.962 181.38 125.443 178.236 123.545C176.675 122.603 175.244 121.912 174.087 121.626C172.937 121.343 172.475 121.545 172.271 121.737L171.725 122.358L166.994 127.807L166.992 127.804L159.718 136.417L159.702 136.436L152.372 144.856L152.37 144.858L146.882 151.142C146.858 151.169 146.832 151.196 146.806 151.221C146.541 151.487 146.354 151.893 146.788 152.901C147.238 153.949 148.226 155.229 149.598 156.586C151.983 158.944 155.152 161.163 157.38 162.353L158.273 162.799L158.489 162.918C158.558 162.963 158.623 163.013 158.684 163.068L159.104 163.446C159.77 164.046 159.823 165.071 159.223 165.738C158.624 166.403 157.598 166.457 156.932 165.857L156.676 165.627C154.092 164.393 150.191 161.737 147.315 158.893C145.838 157.433 144.503 155.803 143.807 154.184C143.105 152.551 142.943 150.573 144.44 149.007L149.924 142.724L157.239 134.322L164.529 125.693L164.543 125.677L169.278 120.231L169.281 120.226L169.867 119.558C169.886 119.536 169.906 119.513 169.926 119.492Z" fill="black"/>
<path d="M100.747 131.721L107.324 141.23C107.868 141.984 107.659 143.031 106.905 143.576C106.151 144.121 105.103 143.911 104.559 143.157L104.517 143.115L98.3591 133.313C97.9402 132.643 98.1497 131.763 98.8199 131.344C99.4901 130.883 100.328 131.093 100.747 131.721Z" fill="black"/>
<path d="M90.1351 70.206C91.9517 69.6648 93.9468 69.7242 95.6962 69.9785C97.4656 70.2358 99.1166 70.7128 100.312 71.1184C100.913 71.3224 101.409 71.5115 101.757 71.6508C101.931 71.7205 102.069 71.7787 102.165 71.8197C102.213 71.8401 102.251 71.8572 102.278 71.8689C102.291 71.8748 102.303 71.8795 102.31 71.883C102.314 71.8846 102.317 71.8866 102.32 71.8877L102.325 71.89L102.611 72.0542C103.223 72.4948 103.463 73.3185 103.143 74.0338C102.777 74.8517 101.815 75.2165 100.997 74.85C100.994 74.8485 100.987 74.8467 100.978 74.843C100.961 74.8353 100.932 74.8217 100.894 74.8054C100.818 74.773 100.702 74.7249 100.551 74.6647C100.249 74.5437 99.8088 74.3759 99.2707 74.1933C98.1864 73.8254 96.737 73.411 95.2295 73.1918C93.701 72.9696 92.2375 72.9681 91.0616 73.3184C89.9508 73.6495 89.1105 74.2798 88.6176 75.4317C87.3568 78.4233 87.1076 80.1049 87.2807 81.1804L87.3792 81.605V81.6096C87.6684 82.5555 88.3848 83.2918 89.9029 84.3585C90.9338 85.068 93.0594 86.164 95.4757 87.3091C96.6677 87.874 97.9004 88.436 99.0549 88.9509L102.17 90.3066L102.196 90.3184C102.726 90.5542 103.352 90.6859 103.983 90.7218C104.969 90.7523 105.915 90.4985 106.687 89.9642L106.711 89.9478C107.397 89.49 107.893 88.9388 108.13 88.2614C108.36 87.6011 108.422 86.596 107.818 85.0669C107.489 84.234 107.898 83.2927 108.73 82.963C109.563 82.6335 110.507 83.0419 110.836 83.8754C111.656 85.9484 111.739 87.7712 111.195 89.3309C110.657 90.8732 109.582 91.9348 108.509 92.6497L108.507 92.6474C107.108 93.6078 105.47 94.0195 103.87 93.9679H103.837C102.894 93.9181 101.865 93.7178 100.903 93.2948C99.1063 92.5337 96.52 91.3939 94.0872 90.241C91.6956 89.1075 89.3252 87.9031 88.0477 87.0206L88.0359 87.0136C86.455 85.9026 84.9091 84.6284 84.2762 82.5596L84.1636 82.1397C83.6666 80.0079 84.2341 77.4746 85.6295 74.1651L85.6342 74.1558C86.5656 71.9786 88.2542 70.7663 90.1351 70.206Z" fill="black"/>
<path d="M83.9063 80.3116C84.5143 80.2874 85.0392 80.3521 85.4144 80.4218C85.6033 80.457 85.7594 80.4942 85.8741 80.525C85.931 80.5403 85.9782 80.5538 86.0148 80.5649C86.033 80.5704 86.0489 80.5772 86.0618 80.5813C86.0683 80.5834 86.0754 80.5843 86.0805 80.586C86.0829 80.5868 86.0855 80.5877 86.0876 80.5884L86.0922 80.5907C86.9411 80.878 87.3974 81.7988 87.1102 82.6477C86.8236 83.4943 85.9073 83.9481 85.0602 83.6656C85.0626 83.6664 85.066 83.6699 85.0673 83.6703C85.0625 83.6689 85.0509 83.6636 85.0321 83.6586C84.9905 83.6474 84.9172 83.6295 84.821 83.6117C84.6255 83.5754 84.3487 83.5429 84.0353 83.5554C83.4978 83.5768 82.8958 83.7251 82.3559 84.2027L82.1167 84.442C81.6171 84.9845 81.0676 86.0435 80.6695 87.3105C80.272 88.5757 80.1197 89.7475 80.1911 90.4182C80.3076 91.4215 80.6063 92.1007 81.0214 92.6347L81.209 92.8552L81.2348 92.8856C81.6581 93.3791 82.2033 93.7861 82.8907 94.2343L83.6272 94.701L83.6365 94.7081C85.0537 95.608 87.9713 96.9639 90.9497 98.1887C93.9426 99.4195 96.7304 100.407 97.8806 100.644C97.8928 100.647 97.9059 100.651 97.9181 100.654H97.972C98.0063 100.654 98.041 100.654 98.0752 100.656C98.951 100.712 99.9113 100.648 100.683 100.276C101.357 99.9517 102.031 99.3307 102.33 97.8909C102.675 96.1837 102.677 94.8958 102.602 94.0537C102.564 93.6319 102.507 93.3188 102.461 93.1178C102.417 92.923 102.384 92.827 102.382 92.82C102.098 91.9701 102.557 91.0515 103.406 90.7677C104.256 90.4843 105.177 90.9429 105.461 91.7927C105.463 91.7978 105.465 91.8127 105.466 91.8138C105.47 91.8254 105.477 91.839 105.482 91.856C105.494 91.8914 105.507 91.9369 105.522 91.9897C105.553 92.095 105.59 92.2325 105.628 92.4001C105.704 92.7358 105.785 93.1927 105.836 93.7652C105.939 94.9127 105.919 96.5156 105.51 98.5359V98.5406C105.013 100.95 103.699 102.424 102.091 103.199C100.618 103.908 99.0441 103.96 97.9533 103.898C97.8153 103.898 97.5544 103.894 97.2262 103.82V103.825C95.7366 103.518 92.6809 102.41 89.716 101.191C86.7362 99.9655 83.5791 98.5164 81.8962 97.4476C80.942 96.8513 79.7321 96.1057 78.7955 95.0247C77.8004 93.919 77.1693 92.5518 76.966 90.7747L76.9637 90.7606C76.8257 89.4626 77.1123 87.805 77.5735 86.3371C78.0342 84.8712 78.7627 83.291 79.729 82.2419C81.0597 80.7746 82.6812 80.3603 83.9063 80.3116Z" fill="black"/>
<path d="M78.9657 92.6749C79.6892 92.1471 80.7028 92.306 81.2314 93.0291C81.7602 93.7527 81.6032 94.7684 80.8796 95.2972C80.8747 95.3008 80.8651 95.3072 80.8538 95.3159C80.8271 95.3366 80.7836 95.3702 80.7271 95.4168C80.6121 95.5117 80.444 95.6577 80.2487 95.846C79.852 96.2286 79.3739 96.7606 78.9915 97.3846C78.608 98.0106 78.3609 98.6653 78.3277 99.3173C78.2963 99.9353 78.449 100.66 79.0548 101.492C79.0682 101.51 79.0821 101.529 79.0947 101.548C79.1767 101.671 79.2764 101.801 79.3926 101.932L79.7866 102.324L79.8194 102.355C83.793 106.095 88.636 107.571 91.3826 107.651C92.0425 107.65 92.4425 107.608 92.6843 107.543C93.4946 107.315 94.1688 106.664 94.746 105.549C95.325 104.431 95.6858 103.076 95.9773 101.827C96.1813 100.955 97.0539 100.413 97.9264 100.617C98.7992 100.82 99.3427 101.693 99.139 102.566C98.8442 103.829 98.4082 105.533 97.6262 107.043C96.8429 108.555 95.5906 110.103 93.5545 110.672L93.5451 110.674C92.8679 110.859 92.1032 110.899 91.3591 110.899C91.3447 110.899 91.329 110.9 91.3146 110.899C87.7744 110.805 82.1585 109.013 77.5959 104.719C77.1436 104.312 76.7227 103.844 76.3927 103.349L76.3974 103.347C75.3993 101.954 75.0167 100.524 75.0863 99.1531C75.1552 97.7988 75.6547 96.6178 76.2238 95.6889C76.7944 94.7579 77.4747 94.0136 77.997 93.5099C78.261 93.2554 78.4933 93.0543 78.6631 92.9142C78.748 92.8441 78.8181 92.7874 78.8695 92.7477C78.895 92.728 78.9169 92.7127 78.9329 92.7007C78.9407 92.6948 78.9462 92.6883 78.9516 92.6843C78.9541 92.6825 78.9567 92.6811 78.9587 92.6796L78.9633 92.6773L78.9657 92.6749Z" fill="black"/>
<path d="M75.9911 101.49C76.6597 100.894 77.6857 100.951 78.2826 101.619C78.8794 102.288 78.8215 103.314 78.1536 103.911C77.3101 104.664 76.4094 105.903 76.5118 107.851L76.547 108.25L76.5494 108.259C76.6624 109.277 77.2429 110.324 78.2498 111.304C79.1261 112.157 80.2537 112.885 81.435 113.417L81.9439 113.633L81.9463 113.635C83.7213 114.345 85.2344 114.541 86.0555 114.355L86.0602 114.353C87.3103 114.075 88.2454 113.563 88.9404 112.819C89.6415 112.068 90.2033 110.969 90.5166 109.348C90.6866 108.468 91.5388 107.89 92.4188 108.06C93.2984 108.23 93.874 109.083 93.7041 109.962C93.3053 112.027 92.5266 113.734 91.3117 115.036C90.0912 116.343 88.5327 117.127 86.7685 117.519C84.9926 117.92 82.7349 117.447 80.7407 116.649C79.0479 115.976 77.3399 114.946 75.9864 113.628C74.6375 112.315 73.544 110.617 73.322 108.618L73.3243 108.616C72.9161 105.106 74.5468 102.78 75.9911 101.49Z" fill="black"/>
<path d="M81.0305 114.039C81.7742 113.54 82.7821 113.737 83.2821 114.48C83.7819 115.224 83.5848 116.232 82.8412 116.732L74.7986 122.136C74.0548 122.636 73.0469 122.438 72.5469 121.695C72.0472 120.951 72.2444 119.943 72.9879 119.443L81.0305 114.039Z" fill="black"/>
<path d="M129.634 88.2387C130.397 87.7685 131.396 88.006 131.867 88.7688C132.337 89.5317 132.1 90.5314 131.337 91.0017L118.561 98.8777C117.798 99.3476 116.798 99.1101 116.328 98.3477C115.858 97.5848 116.095 96.5851 116.858 96.1148L129.634 88.2387Z" fill="black"/>
<path d="M135.732 101.638C136.551 101.274 137.511 101.642 137.875 102.461C138.239 103.28 137.869 104.239 137.05 104.603L123.101 110.804C122.282 111.168 121.324 110.797 120.96 109.979C120.596 109.16 120.964 108.201 121.783 107.837L135.732 101.638Z" fill="black"/>
<path d="M135.938 115.347C136.798 115.097 137.7 115.591 137.95 116.452C138.2 117.312 137.705 118.211 136.846 118.462L125.325 121.813C124.464 122.064 123.565 121.569 123.315 120.709C123.064 119.848 123.559 118.947 124.419 118.696L135.938 115.347Z" fill="black"/>
<path d="M71.0386 175.214C71.6799 174.588 72.7087 174.601 73.3348 175.242C73.9599 175.883 73.9473 176.91 73.3066 177.536L66.2679 184.406C65.6265 185.032 64.6 185.019 63.974 184.378C63.3483 183.736 63.3609 182.71 64.0022 182.084L71.0386 175.214Z" fill="black"/>
<path d="M167.31 140.565C167.844 139.845 168.859 139.695 169.578 140.229L173.809 143.37C174.529 143.904 174.679 144.921 174.145 145.64C173.61 146.36 172.594 146.51 171.874 145.976L167.645 142.833C166.926 142.299 166.776 141.284 167.31 140.565Z" fill="black"/>
<path d="M170.996 131.441C171.503 130.702 172.513 130.513 173.253 131.019L179.494 135.292C180.233 135.799 180.422 136.809 179.916 137.549C179.41 138.288 178.399 138.477 177.66 137.971L171.418 133.698C170.679 133.191 170.49 132.181 170.996 131.441Z" fill="black"/>
</svg>
