<svg preserveAspectRatio="none" width="100%" height="100%" overflow="visible" style="display: block;" viewBox="0 0 132.243 156.422" fill="none" xmlns="http://www.w3.org/2000/svg">
<g id="icon">
<path id="Vector" d="M66.2347 0.0133405L66.1216 47.9783" stroke="var(--stroke-0, #161616)" stroke-width="11.3125" stroke-miterlimit="10"/>
<path id="Vector_2" d="M66.2347 108.444L66.1216 156.409" stroke="var(--stroke-0, #161616)" stroke-width="11.3125" stroke-miterlimit="10"/>
<path id="Vector_3" d="M66.1216 92.8324C99.5156 92.8324 126.587 79.2841 126.587 62.5715C126.587 45.8588 99.5156 32.3105 66.1216 32.3105C32.7275 32.3105 5.65625 45.8588 5.65625 62.5715C5.65625 79.2841 32.7275 92.8324 66.1216 92.8324Z" stroke="var(--stroke-0, #161616)" stroke-width="11.3125" stroke-miterlimit="10"/>
<path id="Vector_4" d="M66.1216 124.055C99.5156 124.055 126.587 110.507 126.587 93.794C126.587 77.0813 99.5156 63.533 66.1216 63.533C32.7275 63.533 5.65625 77.0813 5.65625 93.794C5.65625 110.507 32.7275 124.055 66.1216 124.055Z" stroke="var(--stroke-0, #161616)" stroke-width="11.3125" stroke-miterlimit="10"/>
</g>
</svg>
