<svg preserveAspectRatio="none" width="100%" height="100%" overflow="visible" style="display: block;" viewBox="0 0 156.113 156.113" fill="none" xmlns="http://www.w3.org/2000/svg">
<g id="icon">
<path id="Vector" d="M114.256 78.0563C134.249 78.0563 150.456 61.849 150.456 41.8563C150.456 21.8635 134.249 5.65625 114.256 5.65625C94.2635 5.65625 78.0563 21.8635 78.0563 41.8563C78.0563 61.849 94.2635 78.0563 114.256 78.0563Z" stroke="var(--stroke-0, #161616)" stroke-width="11.3125" stroke-miterlimit="10"/>
<path id="Vector_2" d="M41.8563 78.0563C61.849 78.0563 78.0563 61.849 78.0563 41.8563C78.0563 21.8635 61.849 5.65625 41.8563 5.65625C21.8635 5.65625 5.65625 21.8635 5.65625 41.8563C5.65625 61.849 21.8635 78.0563 41.8563 78.0563Z" stroke="var(--stroke-0, #161616)" stroke-width="11.3125" stroke-miterlimit="10"/>
<path id="Vector_3" d="M114.256 150.456C134.249 150.456 150.456 134.249 150.456 114.256C150.456 94.2635 134.249 78.0563 114.256 78.0563C94.2635 78.0563 78.0563 94.2635 78.0563 114.256C78.0563 134.249 94.2635 150.456 114.256 150.456Z" stroke="var(--stroke-0, #161616)" stroke-width="11.3125" stroke-miterlimit="10"/>
<path id="Vector_4" d="M41.8563 150.456C61.849 150.456 78.0563 134.249 78.0563 114.256C78.0563 94.2635 61.849 78.0563 41.8563 78.0563C21.8635 78.0563 5.65625 94.2635 5.65625 114.256C5.65625 134.249 21.8635 150.456 41.8563 150.456Z" stroke="var(--stroke-0, #161616)" stroke-width="11.3125" stroke-miterlimit="10"/>
</g>
</svg>
